<svg width="91" height="114" viewBox="0 0 91 114" fill="none" xmlns="http://www.w3.org/2000/svg">
<path d="M83.35 60.1399H83.342V59.1809L83.35 60.1399Z" fill="#231F20"/>
<path d="M87.4295 15.7766C86.2821 16.6253 84.161 18.0878 79.201 17.2918C79.201 17.2918 81.1804 16.6109 81.6467 15.1245C82.113 13.638 81.0753 13.1058 81.0753 13.1058C79.9324 13.0482 72.2205 12.4345 72.2205 12.4345C65.6971 10.8761 57.3178 11.7967 53.999 11.9406C50.6801 12.0844 47.8687 13.897 44.4219 18.294C41.2996 22.2834 34.5066 26.2968 29.478 31.3459C28.5638 32.2761 25.2175 36.7978 23.8415 38.8452C21.9901 41.6072 16.9524 47.0686 11.3982 57.4785C8.24394 63.3908 3.73198 72.8225 1.84399 79.1711C5.38682 64.0669 12.3582 42.3072 17.1536 37.2677C17.2999 37.1143 17.4507 36.956 17.6107 36.7882C17.6229 36.7694 17.6367 36.7517 17.6519 36.7355C24.2804 29.8403 38.5065 15.9972 42.9728 10.7562C47.5442 5.38106 49.7384 4.80566 52.6732 4.80566H65.5051C65.5051 4.80566 69.7885 4.88718 72.2891 6.24416C74.7896 7.60114 86.6204 13.8586 86.6204 13.8586C87.0402 14.0893 87.4045 14.4173 87.6855 14.8176C87.7339 14.8967 87.7659 14.9858 87.7792 15.0788C87.7925 15.1718 87.7868 15.2668 87.7627 15.3573C87.7385 15.4479 87.6963 15.5321 87.6389 15.6044C87.5814 15.6766 87.5101 15.7353 87.4295 15.7766Z" fill="#C8EBFB"/>
<path d="M2.27883 79.3104L1.40112 79.0706C4.75195 64.7816 11.7553 42.2644 16.8341 36.9419L17.2684 36.496L17.3278 36.4241C19.7278 33.9259 23.1106 30.5358 26.6855 26.9444C32.8294 20.7828 39.7916 13.7965 42.6305 10.464C47.0876 5.2375 49.3275 4.35522 52.6875 4.35522H65.5194C65.7068 4.35522 69.9491 4.45592 72.5182 5.86564C74.9685 7.21783 86.7261 13.3794 86.8266 13.4609C87.3309 13.7231 87.767 14.1098 88.0975 14.5877C88.176 14.7183 88.2284 14.8643 88.2516 15.0167C88.2747 15.1692 88.2682 15.325 88.2323 15.4747C88.1964 15.6244 88.1319 15.7649 88.0427 15.8877C87.9535 16.0106 87.8415 16.1131 87.7135 16.1892C86.6392 16.9804 84.4084 18.6299 79.1513 17.786L77.2724 17.4839L79.101 16.8557C79.101 16.8557 80.8701 16.2276 81.2541 14.9953C81.5238 14.1178 81.1444 13.7246 80.9798 13.5999C79.5353 13.5136 72.5319 12.9574 72.2256 12.9334L72.0976 12.8999C66.7217 11.5956 60.0246 12.0176 56.0246 12.2717C55.2338 12.3197 54.5435 12.3676 53.9949 12.3868C50.795 12.5067 48.1024 14.3048 44.7562 18.5771C43.0327 20.7828 40.2168 22.9885 37.2362 25.3237C34.6361 27.2879 32.1508 29.4143 29.794 31.6914C28.8797 32.5881 25.5701 37.105 24.2169 39.1236C23.7598 39.8285 23.0832 40.6916 22.2421 41.7753C18.3036 46.7425 14.8071 52.0776 11.7965 57.7138C8.55534 63.7507 4.14853 73.0338 2.27883 79.3104ZM17.9175 37.1433L17.4604 37.6228C13.7484 41.5163 8.31763 56.5822 4.3771 71.0199C6.43422 66.1769 8.94848 61.0799 10.9828 57.2631C14.0124 51.5801 17.5319 46.2 21.4969 41.1903C22.3244 40.1162 22.9781 39.2723 23.4352 38.5866C24.8706 36.4768 28.2123 31.9456 29.1632 31.0009C31.5534 28.7019 34.0738 26.5562 36.7105 24.5757C39.6454 22.2789 42.4156 20.1067 44.0705 17.9922C47.5584 13.5424 50.5207 11.5861 53.9812 11.4518C54.5252 11.4518 55.2018 11.3895 55.9881 11.3367C60.0292 11.0826 66.7902 10.651 72.2896 11.9792C72.8519 12.0224 80.0153 12.593 81.0987 12.6505H81.1947L81.2815 12.6937C81.7387 12.943 82.5432 13.8109 82.0815 15.2878C81.8249 15.9974 81.3567 16.6011 80.7467 17.0092C84.5867 17.3065 86.2964 16.0502 87.1466 15.3981C87.3615 15.2398 87.3249 15.1679 87.2655 15.0624C87.0331 14.7598 86.7416 14.5129 86.4106 14.3384C86.2964 14.2808 74.5525 8.1049 72.0793 6.72395C69.7022 5.41971 65.5423 5.32381 65.5011 5.32381H52.7012C50.027 5.32381 47.9333 5.72659 43.339 11.1114C40.4773 14.4678 33.7985 21.1808 27.3392 27.6445C23.7643 31.2311 20.3861 34.6212 17.9907 37.1097L17.9541 37.1865L17.9175 37.1433Z" fill="#231F20"/>
<path d="M81.6471 15.1487C81.1899 16.6352 79.2014 17.316 79.2014 17.316L79.1465 17.3448L78.9637 17.4311L78.7122 17.551L78.5568 17.6181H78.5065C77.4414 18.0401 75.1374 18.7114 71.4803 18.5771C66.2232 18.3901 58.0038 21.6459 58.0038 21.6459C58.0038 21.6459 52.4862 24.1345 50.9136 26.9204C49.3411 29.7063 43.796 37.244 43.0737 39.4641C41.9263 42.95 41.0806 51.8303 36.3172 58.1933C35.6596 59.0626 35.2168 60.0887 35.028 61.1805C34.6349 63.5253 33.8166 67.7209 32.6555 70.5212C31.6498 72.9522 33.3412 80.7872 35.9469 87.4091C39.3571 96.0832 40.1526 105.654 33.5423 110.828C30.4795 113.225 26.1733 113.163 23.6636 112.981C23.6636 112.981 -2.39334 107.227 0.724344 84.2971C1.03977 82.7148 1.41462 81.003 1.83976 79.1809V79.1425C3.72775 72.7844 8.23971 63.3623 11.394 57.45C16.9482 47.0449 21.9859 41.5835 23.8373 38.8167C25.2087 36.7693 28.5458 32.2476 29.4738 31.3174C34.5023 26.2683 41.2954 22.2549 44.4177 18.2655C47.8645 13.8685 50.6759 12.032 53.9947 11.9025C57.3136 11.773 65.7066 10.8476 72.2163 12.4252C72.2163 12.4252 79.9328 13.0389 81.0711 13.0965C81.0756 13.13 82.1042 13.6671 81.6471 15.1487Z" fill="#7AC38F"/>
<path d="M25.6335 113.594C24.9905 113.594 24.3215 113.568 23.6267 113.517H23.5627C19.0129 112.352 14.6848 110.386 10.7628 107.701C2.612 101.937 -1.04511 93.8674 0.257733 84.3445V84.1479L0.298875 84.1048C0.609729 82.5656 0.97544 80.8873 1.38687 79.1132L1.41886 79.0173C3.29313 72.6975 7.75481 63.3473 11.0188 57.2673C14.0486 51.5844 17.568 46.2043 21.533 41.1945C22.3604 40.1204 23.0141 39.2765 23.4712 38.5908C24.8701 36.4762 28.2118 31.9449 29.1626 31.0003C31.553 28.7014 34.0734 26.5558 36.71 24.5751C39.6448 22.2783 42.4151 20.1061 44.0699 17.9915C47.5579 13.5418 50.5201 11.5854 53.9807 11.4512C54.5247 11.4512 55.2012 11.3889 55.9875 11.3361C60.0286 11.082 66.7897 10.6504 72.2891 11.9786C72.8514 12.0218 80.0147 12.5924 81.0981 12.6499H81.1941L81.281 12.6931C81.7381 12.9424 82.5427 13.8103 82.081 15.2872C81.5781 16.8887 79.6673 17.6415 79.3793 17.747L78.6845 18.0683C77.5828 18.5046 75.2102 19.2047 71.4662 19.0752C66.3737 18.8978 58.2458 22.0817 58.1635 22.1104C58.0812 22.1392 52.783 24.5655 51.3064 27.1979C50.6847 28.3151 49.4459 30.1564 48.1339 32.1032C46.159 35.0377 43.9236 38.3702 43.5031 39.6505C43.2242 40.504 42.9545 41.7123 42.6436 43.1173C41.7294 47.3177 40.3077 53.6662 36.6734 58.5187C36.062 59.3246 35.6505 60.2768 35.4757 61.2902C35.0871 63.587 34.2597 67.869 33.0712 70.7412C32.1569 72.8941 33.6883 80.4558 36.3671 87.2551C40.5682 97.9431 39.6357 106.684 33.8163 111.23C31.8186 112.808 29.126 113.594 25.6335 113.594ZM23.7227 112.563C27.9741 112.875 31.0963 112.199 33.2632 110.506C36.4631 107.993 41.0345 101.683 35.5168 87.6531C33.0163 81.3045 31.1055 73.1099 32.23 70.3911C33.3546 67.6724 34.1957 63.4144 34.5751 61.156C34.7737 59.9875 35.2448 58.8888 35.9466 57.9577C39.4528 53.273 40.8334 47.0491 41.7476 42.9303C42.0631 41.4918 42.3374 40.2642 42.6345 39.3676C43.0916 37.9579 45.2768 34.7164 47.3842 31.5805C48.6824 29.6625 49.9121 27.8213 50.5156 26.7424C52.143 23.8366 57.5875 21.3576 57.8298 21.2521C58.1864 21.1083 66.2091 17.9532 71.5028 18.145C75.0868 18.2697 77.3313 17.6127 78.3599 17.186L79.0776 16.8551C79.0776 16.8551 80.8467 16.227 81.2307 14.9947C81.5004 14.1172 81.121 13.7192 80.9564 13.5993C79.5119 13.513 72.5085 12.9568 72.2022 12.9328L72.0971 12.8993C66.7211 11.595 60.0241 12.017 56.0241 12.2711C55.2332 12.3191 54.543 12.367 53.9944 12.3862C50.7944 12.5061 48.1019 14.3042 44.7556 18.5765C43.0322 20.7822 40.2162 22.9879 37.2357 25.3231C34.6355 27.2873 32.1503 29.4137 29.7935 31.6908C28.8792 32.5875 25.5695 37.1043 24.2164 39.123C23.7592 39.8279 23.0827 40.691 22.2415 41.7747C18.3031 46.7419 14.8067 52.077 11.7959 57.7132C8.57309 63.7501 4.14341 73.0332 2.27829 79.2906V79.3386C1.86229 81.1223 1.49658 82.8101 1.18572 84.3541V84.3829C-0.103407 93.7091 3.2977 101.271 11.2702 106.881C15.0867 109.492 19.297 111.407 23.7227 112.544V112.563Z" fill="#231F20"/>
<path d="M89.7614 12.8998C89.3346 13.8004 88.5877 14.4892 87.6814 14.8178C87.4004 14.4174 87.0361 14.0895 86.6163 13.8588C86.6163 13.8588 74.7856 7.62529 72.285 6.24433C69.7845 4.86338 65.5011 4.80584 65.5011 4.80584H52.6737C49.7343 4.80584 47.5492 5.38124 42.9733 10.7564C38.507 15.9973 24.2809 29.8404 17.6523 36.7356C18.3792 35.7766 28.6877 22.1781 31.9288 17.5125C33.7928 14.7821 35.9173 12.2581 38.2693 9.97963C38.2693 9.97963 45.2635 3.57832 47.3298 1.62197C49.3961 -0.334382 53.812 0.76367 53.812 0.76367C53.812 0.76367 58.3194 1.72267 66.0176 2.63851C73.7158 3.55435 77.4461 4.82023 77.4461 4.82023L87.7957 10.3057C87.7957 10.3057 90.4243 11.4613 89.7614 12.8998Z" fill="#91D3C9"/>
<path d="M17.972 37.0905L17.2954 36.448C18.0863 35.4266 28.3307 21.8856 31.5581 17.268C33.4362 14.5029 35.5808 11.9481 37.9581 9.64402C38.0267 9.58169 44.9752 3.22354 47.014 1.29116C49.222 -0.813835 53.7248 0.274626 53.9168 0.332166C53.9488 0.332166 58.4882 1.29116 66.0675 2.19741C73.7292 3.08449 77.432 4.34557 77.5874 4.39831L77.6514 4.42708L87.9965 9.87898C88.1519 9.94611 89.793 10.6845 90.2227 11.8593C90.2988 12.0614 90.3341 12.2778 90.3262 12.4949C90.3183 12.712 90.2675 12.925 90.177 13.1204C89.6995 14.1419 88.8566 14.9243 87.8319 15.2973L87.4799 15.4172L87.2879 15.0815C87.0502 14.77 86.7507 14.5164 86.4102 14.3383C86.2959 14.2808 74.552 8.10483 72.0743 6.72388C69.7018 5.41964 65.5373 5.32374 65.4916 5.32374H52.6917C50.0174 5.32374 47.9237 5.72652 43.3295 11.1113C40.4678 14.4678 33.789 21.1808 27.3296 27.6444C23.7411 31.2119 20.3628 34.5971 17.972 37.0905ZM51.0688 0.912359C49.8483 0.912359 48.4814 1.13293 47.622 1.95287C45.5786 3.87086 38.6255 10.253 38.5524 10.3201C36.231 12.5817 34.1328 15.083 32.2896 17.7859C30.3376 20.591 25.8348 26.6374 22.3879 31.2119L26.6805 26.8964C32.8244 20.7348 39.7866 13.7485 42.6255 10.416C47.0826 5.18948 49.3226 4.30721 52.6825 4.30721H65.5144C65.7018 4.30721 69.9441 4.4079 72.5132 5.81763C74.968 7.21776 86.7256 13.3793 86.8262 13.4608C87.1998 13.6664 87.5407 13.9317 87.8365 14.2472C88.4964 13.9346 89.0315 13.3903 89.3496 12.708C89.3848 12.6284 89.4031 12.5417 89.4031 12.4539C89.4031 12.3661 89.3848 12.2794 89.3496 12.1997C89.1028 11.5285 87.9782 10.9099 87.5988 10.7613L77.2629 5.2662C76.888 5.14153 73.1486 3.95238 65.9578 3.11805C58.3282 2.22618 53.7568 1.24321 53.7111 1.23362C52.8431 1.03229 51.9577 0.924646 51.0688 0.912359Z" fill="#231F20"/>
<path d="M88.4725 62.3266C86.9731 61.3676 83.1788 60.3606 79.22 63.9904C75.5629 67.3469 72.82 70.4253 71.7321 72.3577C71.5426 72.69 71.2943 72.9813 71.0006 73.216C70.2692 73.7914 68.8932 74.7696 67.6544 75.0141C64.7283 75.5094 61.8291 76.1656 58.9687 76.98C57.547 77.4068 54.2054 76.1745 52.8248 75.6135C50.4797 74.6545 47.682 71.298 47.682 71.298C45.8534 68.2963 44.2809 60.4326 44.3403 58.6105C44.4226 56.1219 44.6694 52.8853 45.5014 51.4851C46.3334 50.085 48.3403 41.08 47.8191 31.7729C45.7757 34.813 43.5129 38.1743 43.0649 39.536C41.9175 43.022 41.0718 51.9023 36.3084 58.2652C35.6508 59.1345 35.208 60.1606 35.0193 61.2525C34.6261 63.5972 33.8078 67.7929 32.6467 70.5931C31.641 73.0242 33.3324 80.8592 35.9381 87.481C39.3484 96.1552 40.1438 105.726 33.5336 110.9C30.4707 113.297 26.1645 113.235 23.6548 113.053C23.6548 113.053 30.9964 114.582 40.6969 112.319C44.9163 111.36 48.5963 107.433 51.3482 105.127C52.2445 104.359 53.0892 103.528 53.8762 102.638C57.195 98.9363 65.3458 92.5685 65.3458 92.5685C65.3458 92.5685 76.3583 85.9994 79.1697 82.2066C81.9811 78.4137 88.5548 67.2271 88.9296 66.7044C89.3045 66.1817 89.9719 63.2952 88.4725 62.3266Z" fill="#B5DAA1"/>
<path d="M30.0034 113.997C27.8479 114.024 25.6943 113.854 23.5669 113.489L23.6858 112.53C27.9554 112.846 31.0868 112.17 33.2582 110.473C36.4582 107.96 41.0296 101.65 35.5119 87.62C33.0114 81.2714 31.1005 73.0768 32.2251 70.358C33.3497 67.6393 34.1908 63.3765 34.5702 61.1229C34.7688 59.9545 35.2399 58.8557 35.9416 57.9246C39.4479 53.24 40.8284 47.0161 41.7427 42.8972C42.0582 41.4587 42.3324 40.2312 42.6296 39.3345C43.0867 37.9248 45.2718 34.6834 47.3792 31.5475L47.617 31.1926L48.2524 31.3365L48.2798 31.7009C48.7918 40.8114 46.8718 50.0609 45.8935 51.696C45.2901 52.7125 44.9198 55.0285 44.801 58.5816C44.7416 60.3317 46.3004 68.0373 48.0512 70.967C48.3164 71.2835 50.8901 74.2755 52.9929 75.1482C55.0958 76.0209 57.7746 76.8217 58.8443 76.5004C61.4509 75.7452 64.0938 75.1354 66.7619 74.6735L67.5619 74.5249C68.7048 74.2995 70.0305 73.3597 70.7162 72.8179C70.9637 72.6215 71.1731 72.3774 71.3333 72.0986C72.435 70.1183 75.1961 67.0207 78.9127 63.6163C82.9583 59.9098 86.9675 60.7968 88.7046 61.9045C88.9938 62.1034 89.2394 62.3644 89.4254 62.6702C89.6114 62.976 89.7334 63.3197 89.7834 63.6786C89.9728 64.8037 89.799 65.9629 89.2897 66.9728C89.2074 67.0879 88.6954 67.9318 88.0463 69.0107C85.9755 72.4343 81.6464 79.5596 79.5344 82.4366C76.7413 86.2055 66.3231 92.4725 65.6008 92.9041C65.1437 93.2781 57.3723 99.3677 54.2135 102.902C53.4124 103.808 52.5524 104.656 51.6398 105.438C51.1461 105.855 50.6249 106.325 50.0718 106.814C47.5301 109.087 44.3713 111.911 40.801 112.746C37.2558 113.573 33.6353 113.992 30.0034 113.997ZM47.4341 33.1538C45.6604 35.8006 43.873 38.5289 43.5027 39.6606C43.2239 40.5141 42.9541 41.7224 42.6433 43.1273C41.729 47.3277 40.3073 53.6763 36.6731 58.5288C36.0617 59.3347 35.6502 60.2869 35.4754 61.3003C35.0868 63.5971 34.2639 67.879 33.0708 70.7512C32.1565 72.9042 33.6879 80.4659 36.3668 87.2651C40.5679 97.9532 39.6353 106.694 33.8159 111.24C32.7194 112.08 31.4772 112.688 30.1588 113.029C33.6799 113.017 37.1895 112.609 40.6273 111.811C43.9736 111.029 47.0273 108.291 49.5049 106.085C50.0627 105.606 50.5929 105.126 51.0912 104.69C51.9715 103.936 52.8009 103.119 53.5735 102.245C56.8832 98.5525 64.7688 92.3766 65.1025 92.1177L65.1482 92.0841C65.2579 92.017 76.1196 85.5198 78.8395 81.8468C80.9424 79.013 85.2395 71.9164 87.3012 68.5024C88.1194 67.1502 88.4852 66.546 88.5857 66.407C88.9322 65.6125 89.0467 64.7283 88.9149 63.8656C88.8883 63.6381 88.8158 63.419 88.7023 63.2231C88.5888 63.0272 88.4369 62.8588 88.2566 62.7292C86.7389 61.7702 83.1915 61.003 79.5435 64.3451C75.8956 67.6872 73.1893 70.7177 72.147 72.5925C71.9269 72.9789 71.6383 73.3174 71.2967 73.5899C70.3825 74.3139 69.011 75.2297 67.7585 75.4743L66.9494 75.6277C64.3137 76.0837 61.7028 76.6855 59.1277 77.4306C57.6054 77.9101 54.442 76.7641 52.6912 76.0497C50.2684 75.0475 47.4844 71.7342 47.3701 71.5808L47.329 71.5232C45.4547 68.4257 43.8547 60.4468 43.9187 58.5768C44.0467 54.8031 44.449 52.3912 45.1484 51.2165C45.8478 50.0417 47.6992 41.8998 47.4341 33.1538Z" fill="#231F20"/>
</svg>
