<svg width="89" height="80" viewBox="0 0 89 80" fill="none" xmlns="http://www.w3.org/2000/svg">
<path d="M86.8467 16.3944C85.4659 13.1862 83.4747 10.279 80.9848 7.83545C78.4931 5.38463 75.5553 3.437 72.3311 2.09847C68.9878 0.704978 65.402 -0.00828799 61.7817 7.26568e-05C56.7028 7.26568e-05 51.7475 1.39556 47.4412 4.03147C46.411 4.66202 45.4323 5.35459 44.5051 6.10919C43.5779 5.35459 42.5992 4.66202 41.569 4.03147C37.2627 1.39556 32.3074 7.26568e-05 27.2285 7.26568e-05C23.5712 7.26568e-05 20.0273 0.702983 16.6791 2.09847C13.4442 3.44226 10.5288 5.37527 8.02534 7.83545C5.5322 10.2762 3.54061 13.1841 2.16344 16.3944C0.73145 19.7332 0 23.2788 0 26.9277C0 30.3699 0.700543 33.9568 2.09133 37.6057C3.25547 40.6551 4.92441 43.8182 7.05694 47.0123C10.436 52.0671 15.0823 57.3389 20.8515 62.6831C30.4118 71.5418 39.8795 77.6613 40.2812 77.9094L42.7228 79.4806C43.8046 80.1731 45.1953 80.1731 46.2771 79.4806L48.7187 77.9094C49.1204 77.6509 58.5778 71.5418 68.1484 62.6831C73.9176 57.3389 78.5639 52.0671 81.9429 47.0123C84.0755 43.8182 85.7547 40.6551 86.9086 37.6057C88.2993 33.9568 88.9999 30.3699 88.9999 26.9277C89.0102 23.2788 88.2787 19.7332 86.8467 16.3944ZM44.5051 71.3041C44.5051 71.3041 7.8296 47.7256 7.8296 26.9277C7.8296 16.3944 16.5143 7.85612 27.2285 7.85612C34.7593 7.85612 41.2908 12.0736 44.5051 18.2344C47.7194 12.0736 54.2509 7.85612 61.7817 7.85612C72.4959 7.85612 81.1806 16.3944 81.1806 26.9277C81.1806 47.7256 44.5051 71.3041 44.5051 71.3041Z" fill="white"/>
</svg>
