<svg width="35" height="35"  fill="none" xmlns="http://www.w3.org/2000/svg">
<path d="M23.3465 11.5062C25.6352 11.5062 27.8302 12.4154 29.4486 14.0338C31.067 15.6522 31.9761 17.8472 31.9761 20.1359V30.2039H26.223V20.1359C26.223 19.373 25.92 18.6413 25.3805 18.1019C24.841 17.5624 24.1094 17.2593 23.3465 17.2593C22.5836 17.2593 21.8519 17.5624 21.3124 18.1019C20.773 18.6413 20.4699 19.373 20.4699 20.1359V30.2039H14.7168V20.1359C14.7168 17.8472 15.626 15.6522 17.2444 14.0338C18.8627 12.4154 21.0577 11.5062 23.3465 11.5062V11.5062Z" stroke="white" stroke-width="2.87656" stroke-linecap="round" stroke-linejoin="round"/>
<path d="M8.96357 12.9445H3.21045V30.2039H8.96357V12.9445Z" stroke="white" stroke-width="2.87656" stroke-linecap="round" stroke-linejoin="round"/>
<path d="M6.08701 8.62967C7.67569 8.62967 8.96357 7.34179 8.96357 5.75311C8.96357 4.16444 7.67569 2.87656 6.08701 2.87656C4.49833 2.87656 3.21045 4.16444 3.21045 5.75311C3.21045 7.34179 4.49833 8.62967 6.08701 8.62967Z" stroke="white" stroke-width="2.87656" stroke-linecap="round" stroke-linejoin="round"/>
</svg>
