<svg width="105" height="84" viewBox="0 0 105 84" fill="none" xmlns="http://www.w3.org/2000/svg">
<path d="M93.7498 0H20.8332C15.0884 0 10.4165 4.67187 10.4165 10.4167V36.4583H20.8332V20.8333L54.1665 45.8333C55.0684 46.5087 56.1648 46.8737 57.2915 46.8737C58.4182 46.8737 59.5146 46.5087 60.4165 45.8333L93.7498 20.8333V67.7083H52.0832V78.125H93.7498C99.4946 78.125 104.166 73.4531 104.166 67.7083V10.4167C104.166 4.67187 99.4946 0 93.7498 0ZM57.2915 35.1562L24.3019 10.4167H90.2811L57.2915 35.1562Z" fill="#5BB275"/>
<path d="M0 41.6666H36.4583V52.0833H0V41.6666ZM10.4167 57.2916H41.6667V67.7083H10.4167V57.2916ZM26.0417 72.9166H46.875V83.3333H26.0417V72.9166Z" fill="#5BB275"/>
</svg>
