<svg width="16" height="18" viewBox="0 0 16 18" fill="none" xmlns="http://www.w3.org/2000/svg">
<path d="M8 0C9.06087 0 10.0783 0.464774 10.8284 1.29208C11.5786 2.11938 12 3.24144 12 4.41143C12 5.58141 11.5786 6.70347 10.8284 7.53078C10.0783 8.35808 9.06087 8.82285 8 8.82285C6.93913 8.82285 5.92172 8.35808 5.17157 7.53078C4.42143 6.70347 4 5.58141 4 4.41143C4 3.24144 4.42143 2.11938 5.17157 1.29208C5.92172 0.464774 6.93913 0 8 0ZM8 11.0286C12.42 11.0286 16 13.0027 16 15.44V17.6457H0V15.44C0 13.0027 3.58 11.0286 8 11.0286Z" fill="black"/>
</svg>
