<svg width="36" height="35" viewBox="0 0 36 35" fill="none" xmlns="http://www.w3.org/2000/svg">
<g clip-path="url(#clip0)">
<path d="M33.6238 4.31482C32.2465 5.28634 30.7215 6.0294 29.1076 6.51538C28.2414 5.51939 27.0902 4.81346 25.8097 4.49306C24.5292 4.17266 23.1812 4.25325 21.948 4.72394C20.7148 5.19463 19.6559 6.0327 18.9145 7.12481C18.1731 8.21691 17.7851 9.51036 17.8028 10.8302V12.2685C15.2752 12.334 12.7706 11.7735 10.5121 10.6367C8.25366 9.49993 6.31137 7.82226 4.85825 5.7531C4.85825 5.7531 -0.894869 18.6976 12.0496 24.4507C9.08755 26.4614 5.55892 27.4696 1.98169 27.3273C14.9262 34.5187 30.7473 27.3273 30.7473 10.7871C30.7459 10.3864 30.7074 9.98681 30.6322 9.5933C32.1001 8.14566 33.136 6.31793 33.6238 4.31482Z" stroke="white" stroke-width="2.87656" stroke-linecap="round" stroke-linejoin="round"/>
</g>
<defs>
<clipPath id="clip0">
<path d="M0.543457 0H35.0622V34.5187H0.543457V0Z" fill="white"/>
</clipPath>
</defs>
</svg>
