<svg width="228" height="80" viewBox="0 0 228 80" fill="none" xmlns="http://www.w3.org/2000/svg">
<g filter="url(#filter0_d)">
<rect x="4" width="220" height="72" rx="5" fill="#007EFF"/>
</g>
<path d="M47.2285 27.93V46H44.2645V27.93H47.2285ZM65.1018 31.44C66.2285 31.44 67.2338 31.674 68.1178 32.142C69.0192 32.61 69.7212 33.3033 70.2238 34.222C70.7265 35.1407 70.9778 36.25 70.9778 37.55V46H68.0398V37.992C68.0398 36.7093 67.7192 35.73 67.0778 35.054C66.4365 34.3607 65.5612 34.014 64.4518 34.014C63.3425 34.014 62.4585 34.3607 61.7998 35.054C61.1585 35.73 60.8378 36.7093 60.8378 37.992V46H57.8738V31.674H60.8378V33.312C61.3232 32.7227 61.9385 32.2633 62.6838 31.934C63.4465 31.6047 64.2525 31.44 65.1018 31.44ZM87.8886 38.486C87.8886 39.0233 87.8539 39.5087 87.7846 39.942H76.8386C76.9253 41.086 77.3499 42.0047 78.1126 42.698C78.8753 43.3913 79.8113 43.738 80.9206 43.738C82.5153 43.738 83.6419 43.0707 84.3006 41.736H87.4986C87.0653 43.0533 86.2766 44.1367 85.1326 44.986C84.0059 45.818 82.6019 46.234 80.9206 46.234C79.5513 46.234 78.3206 45.9307 77.2286 45.324C76.1539 44.7 75.3046 43.8333 74.6806 42.724C74.0739 41.5973 73.7706 40.2973 73.7706 38.824C73.7706 37.3507 74.0653 36.0593 74.6546 34.95C75.2613 33.8233 76.1019 32.9567 77.1766 32.35C78.2686 31.7433 79.5166 31.44 80.9206 31.44C82.2726 31.44 83.4773 31.7347 84.5346 32.324C85.5919 32.9133 86.4153 33.7453 87.0046 34.82C87.5939 35.8773 87.8886 37.0993 87.8886 38.486ZM84.7946 37.55C84.7773 36.458 84.3873 35.5827 83.6246 34.924C82.8619 34.2653 81.9173 33.936 80.7906 33.936C79.7679 33.936 78.8926 34.2653 78.1646 34.924C77.4366 35.5653 77.0033 36.4407 76.8646 37.55H84.7946ZM103.935 38.486C103.935 39.0233 103.901 39.5087 103.831 39.942H92.8855C92.9721 41.086 93.3968 42.0047 94.1595 42.698C94.9221 43.3913 95.8581 43.738 96.9675 43.738C98.5621 43.738 99.6888 43.0707 100.347 41.736H103.545C103.112 43.0533 102.323 44.1367 101.179 44.986C100.053 45.818 98.6488 46.234 96.9675 46.234C95.5981 46.234 94.3675 45.9307 93.2755 45.324C92.2008 44.7 91.3515 43.8333 90.7275 42.724C90.1208 41.5973 89.8175 40.2973 89.8175 38.824C89.8175 37.3507 90.1121 36.0593 90.7015 34.95C91.3081 33.8233 92.1488 32.9567 93.2235 32.35C94.3155 31.7433 95.5635 31.44 96.9675 31.44C98.3195 31.44 99.5241 31.7347 100.581 32.324C101.639 32.9133 102.462 33.7453 103.051 34.82C103.641 35.8773 103.935 37.0993 103.935 38.486ZM100.841 37.55C100.824 36.458 100.434 35.5827 99.6715 34.924C98.9088 34.2653 97.9641 33.936 96.8375 33.936C95.8148 33.936 94.9395 34.2653 94.2115 34.924C93.4835 35.5653 93.0501 36.4407 92.9115 37.55H100.841ZM105.864 38.772C105.864 37.3333 106.159 36.0593 106.748 34.95C107.355 33.8407 108.17 32.9827 109.192 32.376C110.232 31.752 111.385 31.44 112.65 31.44C113.586 31.44 114.505 31.648 115.406 32.064C116.325 32.4627 117.053 33 117.59 33.676V26.76H120.58V46H117.59V43.842C117.105 44.5353 116.429 45.1073 115.562 45.558C114.713 46.0087 113.734 46.234 112.624 46.234C111.376 46.234 110.232 45.922 109.192 45.298C108.17 44.6567 107.355 43.7727 106.748 42.646C106.159 41.502 105.864 40.2107 105.864 38.772ZM117.59 38.824C117.59 37.836 117.382 36.978 116.966 36.25C116.568 35.522 116.039 34.9673 115.38 34.586C114.722 34.2047 114.011 34.014 113.248 34.014C112.486 34.014 111.775 34.2047 111.116 34.586C110.458 34.95 109.92 35.496 109.504 36.224C109.106 36.9347 108.906 37.784 108.906 38.772C108.906 39.76 109.106 40.6267 109.504 41.372C109.92 42.1173 110.458 42.6893 111.116 43.088C111.792 43.4693 112.503 43.66 113.248 43.66C114.011 43.66 114.722 43.4693 115.38 43.088C116.039 42.7067 116.568 42.152 116.966 41.424C117.382 40.6787 117.59 39.812 117.59 38.824ZM138.637 31.44C139.729 31.44 140.7 31.674 141.549 32.142C142.416 32.61 143.092 33.3033 143.577 34.222C144.08 35.1407 144.331 36.25 144.331 37.55V46H141.393V37.992C141.393 36.7093 141.073 35.73 140.431 35.054C139.79 34.3607 138.915 34.014 137.805 34.014C136.696 34.014 135.812 34.3607 135.153 35.054C134.512 35.73 134.191 36.7093 134.191 37.992V46H131.227V26.76H134.191V33.338C134.694 32.7313 135.327 32.2633 136.089 31.934C136.869 31.6047 137.719 31.44 138.637 31.44ZM161.242 38.486C161.242 39.0233 161.207 39.5087 161.138 39.942H150.192C150.279 41.086 150.703 42.0047 151.466 42.698C152.229 43.3913 153.165 43.738 154.274 43.738C155.869 43.738 156.995 43.0707 157.654 41.736H160.852C160.419 43.0533 159.63 44.1367 158.486 44.986C157.359 45.818 155.955 46.234 154.274 46.234C152.905 46.234 151.674 45.9307 150.582 45.324C149.507 44.7 148.658 43.8333 148.034 42.724C147.427 41.5973 147.124 40.2973 147.124 38.824C147.124 37.3507 147.419 36.0593 148.008 34.95C148.615 33.8233 149.455 32.9567 150.53 32.35C151.622 31.7433 152.87 31.44 154.274 31.44C155.626 31.44 156.831 31.7347 157.888 32.324C158.945 32.9133 159.769 33.7453 160.358 34.82C160.947 35.8773 161.242 37.0993 161.242 38.486ZM158.148 37.55C158.131 36.458 157.741 35.5827 156.978 34.924C156.215 34.2653 155.271 33.936 154.144 33.936C153.121 33.936 152.246 34.2653 151.518 34.924C150.79 35.5653 150.357 36.4407 150.218 37.55H158.148ZM167.123 26.76V46H164.159V26.76H167.123ZM173.978 33.78C174.481 33.1213 175.166 32.5667 176.032 32.116C176.899 31.6653 177.878 31.44 178.97 31.44C180.218 31.44 181.354 31.752 182.376 32.376C183.416 32.9827 184.231 33.8407 184.82 34.95C185.41 36.0593 185.704 37.3333 185.704 38.772C185.704 40.2107 185.41 41.502 184.82 42.646C184.231 43.7727 183.416 44.6567 182.376 45.298C181.354 45.922 180.218 46.234 178.97 46.234C177.878 46.234 176.908 46.0173 176.058 45.584C175.209 45.1333 174.516 44.5787 173.978 43.92V52.812H171.014V31.674H173.978V33.78ZM182.688 38.772C182.688 37.784 182.48 36.9347 182.064 36.224C181.666 35.496 181.128 34.95 180.452 34.586C179.794 34.2047 179.083 34.014 178.32 34.014C177.575 34.014 176.864 34.2047 176.188 34.586C175.53 34.9673 174.992 35.522 174.576 36.25C174.178 36.978 173.978 37.836 173.978 38.824C173.978 39.812 174.178 40.6787 174.576 41.424C174.992 42.152 175.53 42.7067 176.188 43.088C176.864 43.4693 177.575 43.66 178.32 43.66C179.083 43.66 179.794 43.4693 180.452 43.088C181.128 42.6893 181.666 42.1173 182.064 41.372C182.48 40.6267 182.688 39.76 182.688 38.772Z" fill="white"/>
<defs>
<filter id="filter0_d" x="0" y="0" width="228" height="80" filterUnits="userSpaceOnUse" color-interpolation-filters="sRGB">
<feFlood flood-opacity="0" result="BackgroundImageFix"/>
<feColorMatrix in="SourceAlpha" type="matrix" values="0 0 0 0 0 0 0 0 0 0 0 0 0 0 0 0 0 0 127 0"/>
<feOffset dy="4"/>
<feGaussianBlur stdDeviation="2"/>
<feColorMatrix type="matrix" values="0 0 0 0 0 0 0 0 0 0 0 0 0 0 0 0 0 0 0.1 0"/>
<feBlend mode="normal" in2="BackgroundImageFix" result="effect1_dropShadow"/>
<feBlend mode="normal" in="SourceGraphic" in2="effect1_dropShadow" result="shape"/>
</filter>
</defs>
</svg>
