<svg width="228" height="80" viewBox="0 0 228 80" fill="none" xmlns="http://www.w3.org/2000/svg">
<g filter="url(#filter0_d)">
<rect x="4" width="220" height="72" rx="5" fill="#007EFF"/>
</g>
<path d="M31.207 27.93V46H28.243V27.93H31.207ZM61.0923 31.674L56.6463 46H53.5263L50.6403 35.418L47.7543 46H44.6343L40.1623 31.674H43.1783L46.1683 43.192L49.2103 31.674H52.3043L55.2163 43.14L58.1803 31.674H61.0923ZM62.3194 38.772C62.3194 37.3333 62.6141 36.0593 63.2034 34.95C63.8101 33.8407 64.6248 32.9827 65.6474 32.376C66.6874 31.752 67.8314 31.44 69.0794 31.44C70.2061 31.44 71.1854 31.6653 72.0174 32.116C72.8668 32.5493 73.5428 33.0953 74.0454 33.754V31.674H77.0354V46H74.0454V43.868C73.5428 44.544 72.8581 45.1073 71.9914 45.558C71.1248 46.0087 70.1368 46.234 69.0274 46.234C67.7968 46.234 66.6701 45.922 65.6474 45.298C64.6248 44.6567 63.8101 43.7727 63.2034 42.646C62.6141 41.502 62.3194 40.2107 62.3194 38.772ZM74.0454 38.824C74.0454 37.836 73.8374 36.978 73.4214 36.25C73.0228 35.522 72.4941 34.9673 71.8354 34.586C71.1768 34.2047 70.4661 34.014 69.7034 34.014C68.9408 34.014 68.2301 34.2047 67.5714 34.586C66.9128 34.95 66.3754 35.496 65.9594 36.224C65.5608 36.9347 65.3614 37.784 65.3614 38.772C65.3614 39.76 65.5608 40.6267 65.9594 41.372C66.3754 42.1173 66.9128 42.6893 67.5714 43.088C68.2474 43.4693 68.9581 43.66 69.7034 43.66C70.4661 43.66 71.1768 43.4693 71.8354 43.088C72.4941 42.7067 73.0228 42.152 73.4214 41.424C73.8374 40.6787 74.0454 39.812 74.0454 38.824ZM88.1565 31.44C89.2832 31.44 90.2885 31.674 91.1725 32.142C92.0738 32.61 92.7758 33.3033 93.2785 34.222C93.7812 35.1407 94.0325 36.25 94.0325 37.55V46H91.0945V37.992C91.0945 36.7093 90.7738 35.73 90.1325 35.054C89.4912 34.3607 88.6158 34.014 87.5065 34.014C86.3972 34.014 85.5132 34.3607 84.8545 35.054C84.2132 35.73 83.8925 36.7093 83.8925 37.992V46H80.9285V31.674H83.8925V33.312C84.3778 32.7227 84.9932 32.2633 85.7385 31.934C86.5012 31.6047 87.3072 31.44 88.1565 31.44ZM101.271 34.092V42.022C101.271 42.5593 101.393 42.9493 101.635 43.192C101.895 43.4173 102.329 43.53 102.935 43.53H104.755V46H102.415C101.081 46 100.058 45.688 99.3473 45.064C98.6366 44.44 98.2813 43.426 98.2813 42.022V34.092H96.5913V31.674H98.2813V28.112H101.271V31.674H104.755V34.092H101.271ZM117.699 34.092V42.022C117.699 42.5593 117.82 42.9493 118.063 43.192C118.323 43.4173 118.756 43.53 119.363 43.53H121.183V46H118.843C117.508 46 116.486 45.688 115.775 45.064C115.064 44.44 114.709 43.426 114.709 42.022V34.092H113.019V31.674H114.709V28.112H117.699V31.674H121.183V34.092H117.699ZM130.129 46.234C128.777 46.234 127.555 45.9307 126.463 45.324C125.371 44.7 124.513 43.8333 123.889 42.724C123.265 41.5973 122.953 40.2973 122.953 38.824C122.953 37.368 123.274 36.0767 123.915 34.95C124.556 33.8233 125.432 32.9567 126.541 32.35C127.65 31.7433 128.89 31.44 130.259 31.44C131.628 31.44 132.868 31.7433 133.977 32.35C135.086 32.9567 135.962 33.8233 136.603 34.95C137.244 36.0767 137.565 37.368 137.565 38.824C137.565 40.28 137.236 41.5713 136.577 42.698C135.918 43.8247 135.017 44.7 133.873 45.324C132.746 45.9307 131.498 46.234 130.129 46.234ZM130.129 43.66C130.892 43.66 131.602 43.478 132.261 43.114C132.937 42.75 133.483 42.204 133.899 41.476C134.315 40.748 134.523 39.864 134.523 38.824C134.523 37.784 134.324 36.9087 133.925 36.198C133.526 35.47 132.998 34.924 132.339 34.56C131.68 34.196 130.97 34.014 130.207 34.014C129.444 34.014 128.734 34.196 128.075 34.56C127.434 34.924 126.922 35.47 126.541 36.198C126.16 36.9087 125.969 37.784 125.969 38.824C125.969 40.3667 126.359 41.5627 127.139 42.412C127.936 43.244 128.933 43.66 130.129 43.66ZM154.659 31.44C155.751 31.44 156.721 31.674 157.571 32.142C158.437 32.61 159.113 33.3033 159.599 34.222C160.101 35.1407 160.353 36.25 160.353 37.55V46H157.415V37.992C157.415 36.7093 157.094 35.73 156.453 35.054C155.811 34.3607 154.936 34.014 153.827 34.014C152.717 34.014 151.833 34.3607 151.175 35.054C150.533 35.73 150.213 36.7093 150.213 37.992V46H147.249V26.76H150.213V33.338C150.715 32.7313 151.348 32.2633 152.111 31.934C152.891 31.6047 153.74 31.44 154.659 31.44ZM177.264 38.486C177.264 39.0233 177.229 39.5087 177.16 39.942H166.214C166.3 41.086 166.725 42.0047 167.488 42.698C168.25 43.3913 169.186 43.738 170.296 43.738C171.89 43.738 173.017 43.0707 173.676 41.736H176.874C176.44 43.0533 175.652 44.1367 174.508 44.986C173.381 45.818 171.977 46.234 170.296 46.234C168.926 46.234 167.696 45.9307 166.604 45.324C165.529 44.7 164.68 43.8333 164.056 42.724C163.449 41.5973 163.146 40.2973 163.146 38.824C163.146 37.3507 163.44 36.0593 164.03 34.95C164.636 33.8233 165.477 32.9567 166.552 32.35C167.644 31.7433 168.892 31.44 170.296 31.44C171.648 31.44 172.852 31.7347 173.91 32.324C174.967 32.9133 175.79 33.7453 176.38 34.82C176.969 35.8773 177.264 37.0993 177.264 38.486ZM174.17 37.55C174.152 36.458 173.762 35.5827 173 34.924C172.237 34.2653 171.292 33.936 170.166 33.936C169.143 33.936 168.268 34.2653 167.54 34.924C166.812 35.5653 166.378 36.4407 166.24 37.55H174.17ZM183.144 26.76V46H180.18V26.76H183.144ZM190 33.78C190.503 33.1213 191.187 32.5667 192.054 32.116C192.921 31.6653 193.9 31.44 194.992 31.44C196.24 31.44 197.375 31.752 198.398 32.376C199.438 32.9827 200.253 33.8407 200.842 34.95C201.431 36.0593 201.726 37.3333 201.726 38.772C201.726 40.2107 201.431 41.502 200.842 42.646C200.253 43.7727 199.438 44.6567 198.398 45.298C197.375 45.922 196.24 46.234 194.992 46.234C193.9 46.234 192.929 46.0173 192.08 45.584C191.231 45.1333 190.537 44.5787 190 43.92V52.812H187.036V31.674H190V33.78ZM198.71 38.772C198.71 37.784 198.502 36.9347 198.086 36.224C197.687 35.496 197.15 34.95 196.474 34.586C195.815 34.2047 195.105 34.014 194.342 34.014C193.597 34.014 192.886 34.2047 192.21 34.586C191.551 34.9673 191.014 35.522 190.598 36.25C190.199 36.978 190 37.836 190 38.824C190 39.812 190.199 40.6787 190.598 41.424C191.014 42.152 191.551 42.7067 192.21 43.088C192.886 43.4693 193.597 43.66 194.342 43.66C195.105 43.66 195.815 43.4693 196.474 43.088C197.15 42.6893 197.687 42.1173 198.086 41.372C198.502 40.6267 198.71 39.76 198.71 38.772Z" fill="white"/>
<defs>
<filter id="filter0_d" x="0" y="0" width="228" height="80" filterUnits="userSpaceOnUse" color-interpolation-filters="sRGB">
<feFlood flood-opacity="0" result="BackgroundImageFix"/>
<feColorMatrix in="SourceAlpha" type="matrix" values="0 0 0 0 0 0 0 0 0 0 0 0 0 0 0 0 0 0 127 0"/>
<feOffset dy="4"/>
<feGaussianBlur stdDeviation="2"/>
<feColorMatrix type="matrix" values="0 0 0 0 0 0 0 0 0 0 0 0 0 0 0 0 0 0 0.1 0"/>
<feBlend mode="normal" in2="BackgroundImageFix" result="effect1_dropShadow"/>
<feBlend mode="normal" in="SourceGraphic" in2="effect1_dropShadow" result="shape"/>
</filter>
</defs>
</svg>
