<svg width="148" height="68" viewBox="0 0 148 68" fill="none" xmlns="http://www.w3.org/2000/svg">
<path d="M75.5417 27.1722C78.5681 27.1722 80.6225 25.623 81.5944 22.335L87.684 24.0313C85.9838 29.3717 82.2519 32.5861 75.5417 32.5861C67.0066 32.5861 62.042 26.4711 62.042 18.0717C62.042 9.67241 66.8139 3.55737 75.3603 3.55737C81.6851 3.55737 86.3012 6.57673 87.6982 12.149L81.6086 13.8452C80.7953 10.3622 78.3895 8.96846 75.3745 8.96846C71.107 8.96846 68.4688 12.361 68.4688 18.0633C68.4688 23.7655 71.2741 27.1722 75.5417 27.1722Z" fill="#231F20"/>
<path d="M99.4383 11.3035C104.822 11.3035 109.447 14.5151 109.447 21.9475C109.447 29.38 104.831 32.5916 99.4383 32.5916C94.0458 32.5916 89.4297 29.3743 89.4297 21.9475C89.4297 14.5207 94.0458 11.3035 99.4383 11.3035ZM99.4383 27.7516C102.116 27.7516 103.629 25.6991 103.629 21.9475C103.629 18.196 102.116 16.1435 99.4383 16.1435C96.7604 16.1435 95.2473 18.196 95.2473 21.9504C95.2473 25.7048 96.7633 27.7544 99.4383 27.7544V27.7516Z" fill="#231F20"/>
<path d="M112.36 24.5684V19.3157H122.845V24.5684H112.36Z" fill="#231F20"/>
<path d="M75.5417 61.3631C78.5681 61.3631 80.6225 59.8139 81.5944 56.5259L87.684 58.2222C85.9838 63.5626 82.2519 66.777 75.5417 66.777C67.0066 66.777 62.042 60.662 62.042 52.2627C62.042 43.8633 66.8139 37.7483 75.3603 37.7483C81.6851 37.7483 86.3012 40.7676 87.6982 46.3399L81.6086 48.0361C80.7953 44.5531 78.3895 43.1594 75.3745 43.1594C71.107 43.1594 68.4688 46.5519 68.4688 52.2542C68.4688 57.9565 71.2741 61.3631 75.5417 61.3631Z" fill="#231F20"/>
<path d="M95.9469 66.7829C92.2999 66.7829 89.2339 64.8039 89.2339 61.0947C89.2339 56.7608 92.2603 55.1352 97.1484 54.5528C99.2425 54.321 100.484 54.0891 101.492 53.6227V53.159C101.492 51.8416 100.756 50.2188 98.3102 50.2188C96.0602 50.2188 95.1676 51.7285 94.7794 53.1986L89.8516 51.573C90.8604 46.9281 94.8163 45.4976 98.5794 45.4976C103.74 45.4976 107.307 47.8186 107.307 54.0524V62.104C107.307 64.1565 107.772 65.4711 108.472 66.2061H102.62C102.039 65.7029 101.807 64.7728 101.728 64.1169C100.059 66.127 98.3527 66.7829 95.9469 66.7829ZM101.495 57.1057C100.341 57.556 99.1449 57.893 97.9248 58.1121C96.1396 58.4598 94.9778 59.1186 95.0543 60.7046C95.094 61.5951 95.6352 62.4461 97.3042 62.4461C99.1263 62.4461 100.835 61.1682 101.495 59.814V57.1057Z" fill="#231F20"/>
<path d="M111.776 66.2003V46.0741H117.234V49.5571C118.515 46.8487 119.832 45.4917 122.742 45.4917C124.295 45.4917 125.381 45.7744 126.31 46.4982L125.46 51.6831C124.581 51.1936 123.596 50.9275 122.589 50.9084C119.254 50.9084 117.585 53.3482 117.585 57.2553V66.1946L111.776 66.2003Z" fill="#231F20"/>
<path d="M133.102 57.8011C133.258 60.5886 135.086 61.9428 137.679 61.9428C139.54 61.9428 140.745 60.8968 141.209 59.6217L146.642 60.7526C145.128 64.7388 142.142 66.7913 137.29 66.7913C132.091 66.7913 127.282 63.5797 127.282 56.1472C127.282 48.7147 132.144 45.489 137.304 45.489C142.385 45.489 147.004 48.5988 147.004 55.3189C147.004 56.5176 146.965 57.7191 146.965 57.7954L133.102 57.8011ZM133.179 53.8431H141.093C140.937 51.7143 139.393 50.3205 137.126 50.3205C136.144 50.3039 135.191 50.6591 134.461 51.3149C133.731 51.9706 133.277 52.878 133.19 53.8544L133.179 53.8431Z" fill="#231F20"/>
<path d="M51.6673 35.4582H51.6616V34.8928L51.6673 35.4582Z" fill="#231F20"/>
<path d="M54.1954 9.30192C53.4841 9.80232 52.1693 10.6646 49.0947 10.1953C49.0947 10.1953 50.3217 9.79384 50.6108 8.91743C50.8998 8.04103 50.2566 7.72722 50.2566 7.72722C49.5481 7.6933 44.7677 7.33143 44.7677 7.33143C40.724 6.41262 35.5299 6.95542 33.4726 7.04023C31.4154 7.12505 29.6726 8.19369 27.536 10.7862C25.6006 13.1383 21.3898 15.5046 18.2727 18.4815C17.706 19.03 15.6317 21.696 14.7788 22.9031C13.6311 24.5316 10.5084 27.7516 7.06548 33.8893C5.11023 37.3751 2.31338 42.936 1.14307 46.6791C3.33917 37.7737 7.66055 24.9443 10.6331 21.973C10.7238 21.8826 10.8173 21.7893 10.9165 21.6903C10.924 21.6792 10.9326 21.6688 10.942 21.6592C15.0508 17.5938 23.8692 9.43197 26.6378 6.34194C29.4715 3.17275 30.8316 2.8335 32.6508 2.8335H40.605C40.605 2.8335 43.2602 2.88156 44.8102 3.68163C46.3602 4.4817 53.6938 8.17108 53.6938 8.17108C53.9541 8.30711 54.1799 8.50047 54.3541 8.7365C54.3841 8.78317 54.4039 8.83566 54.4121 8.89051C54.4204 8.94536 54.4169 9.00133 54.4019 9.05474C54.3869 9.10814 54.3608 9.15778 54.3252 9.20038C54.2896 9.24299 54.2453 9.27759 54.1954 9.30192Z" fill="#C8EBFB"/>
<path d="M1.41272 46.761L0.868652 46.6196C2.94575 38.1948 7.28696 24.9187 10.4352 21.7807L10.7044 21.5177L10.7412 21.4753C12.2289 20.0024 14.3258 18.0036 16.5418 15.8861C20.3503 12.2533 24.666 8.1342 26.4257 6.16936C29.1885 3.08781 30.577 2.56763 32.6598 2.56763H40.614C40.7301 2.56763 43.3598 2.627 44.9523 3.45817C46.4712 4.25541 53.7594 7.88824 53.8218 7.93631C54.1344 8.09092 54.4047 8.3189 54.6096 8.60068C54.6582 8.67767 54.6907 8.76372 54.7051 8.85361C54.7194 8.9435 54.7154 9.03536 54.6931 9.12363C54.6709 9.2119 54.6309 9.29475 54.5756 9.36717C54.5203 9.43958 54.4509 9.50006 54.3715 9.54493C53.7056 10.0114 52.3228 10.9839 49.064 10.4864L47.8994 10.3082L49.0329 9.9379C49.0329 9.9379 50.1295 9.56755 50.3675 8.84098C50.5347 8.32362 50.2995 8.0918 50.1975 8.01829C49.3021 7.9674 44.9608 7.63946 44.771 7.62532L44.6916 7.60553C41.3592 6.83656 37.2079 7.08535 34.7284 7.23518C34.2382 7.26345 33.8103 7.29172 33.4702 7.30303C31.4867 7.37371 29.8176 8.43388 27.7434 10.9528C26.6751 12.2533 24.9295 13.5538 23.0819 14.9306C21.4702 16.0887 19.9296 17.3424 18.4687 18.685C17.902 19.2136 15.8504 21.8768 15.0116 23.067C14.7282 23.4826 14.3088 23.9915 13.7874 24.6304C11.3461 27.559 9.17869 30.7046 7.31246 34.0277C5.30337 37.587 2.5717 43.0603 1.41272 46.761ZM11.1068 21.8994L10.8234 22.1821C8.52244 24.4777 5.15602 33.3605 2.71338 41.8729C3.98854 39.0175 5.54707 36.0123 6.80806 33.7619C8.68609 30.4113 10.8677 27.2392 13.3255 24.2855C13.8384 23.6522 14.2437 23.1546 14.527 22.7504C15.4168 21.5064 17.4882 18.8348 18.0776 18.2779C19.5593 16.9224 21.1216 15.6573 22.7561 14.4895C24.5753 13.1354 26.2925 11.8547 27.3183 10.6079C29.4804 7.98437 31.3166 6.83091 33.4617 6.75175C33.7989 6.75175 34.2183 6.71499 34.7057 6.6839C37.2107 6.53406 41.4017 6.27962 44.8107 7.06273C45.1592 7.08817 49.5996 7.4246 50.2712 7.45852H50.3307L50.3845 7.48397C50.6679 7.63098 51.1666 8.14268 50.8804 9.01343C50.7213 9.4318 50.4311 9.78776 50.053 10.0284C52.4333 10.2036 53.4931 9.46294 54.0201 9.07846C54.1533 8.98516 54.1307 8.94276 54.0938 8.88056C53.9498 8.70212 53.7691 8.55655 53.5639 8.45367C53.4931 8.41974 46.2133 4.77843 44.6803 3.96422C43.2068 3.19524 40.6281 3.1387 40.6026 3.1387H32.6683C31.0106 3.1387 29.7128 3.37618 26.8649 6.55102C25.091 8.53 20.951 12.4879 16.947 16.2989C14.7311 18.4136 12.637 20.4123 11.1521 21.8796L11.1294 21.9248L11.1068 21.8994Z" fill="#231F20"/>
<path d="M50.6111 8.93175C50.3277 9.80816 49.0951 10.2096 49.0951 10.2096L49.0611 10.2266L48.9477 10.2775L48.7919 10.3481L48.6955 10.3877H48.6643C48.0041 10.6365 46.5759 11.0323 44.309 10.9531C41.0502 10.8429 35.9552 12.7625 35.9552 12.7625C35.9552 12.7625 32.535 14.2298 31.5602 15.8723C30.5854 17.5149 27.1481 21.9591 26.7004 23.268C25.9892 25.3233 25.4649 30.5591 22.5122 34.3107C22.1046 34.8232 21.8301 35.4282 21.7131 36.072C21.4694 37.4545 20.9622 39.9282 20.2424 41.5792C19.619 43.0125 20.6675 47.632 22.2827 51.5363C24.3966 56.6505 24.8897 62.2934 20.7922 65.3439C18.8936 66.7574 16.2243 66.7207 14.6686 66.6132C14.6686 66.6132 -1.48345 63.2207 0.449129 49.7015C0.644654 48.7685 0.877016 47.7593 1.14055 46.685V46.6623C2.31086 42.9136 5.10771 37.3583 7.06296 33.8725C10.5059 27.7377 13.6286 24.5176 14.7763 22.8864C15.6264 21.6792 17.695 19.0132 18.2702 18.4648C21.3873 15.4878 25.5981 13.1215 27.5335 10.7694C29.6701 8.17692 31.4128 7.09413 33.4701 7.0178C35.5274 6.94147 40.73 6.39584 44.7652 7.32596C44.7652 7.32596 49.5485 7.68783 50.254 7.72175C50.2569 7.74154 50.8945 8.05818 50.6111 8.93175Z" fill="#7AC38F"/>
<path d="M15.8896 66.9747C15.491 66.9747 15.0763 66.9596 14.6456 66.9294H14.6059C11.7856 66.2427 9.10271 65.0831 6.67158 63.5002C1.61911 60.102 -0.647839 55.344 0.159762 49.7293V49.6134L0.185265 49.588C0.377956 48.6805 0.604651 47.691 0.859683 46.6449L0.879519 46.5884C2.04133 42.8623 4.80701 37.3494 6.83026 33.7646C8.70836 30.414 10.89 27.242 13.3477 24.2882C13.8606 23.6549 14.2659 23.1573 14.5492 22.753C15.4163 21.5063 17.4878 18.8347 18.0772 18.2777C19.5589 16.9223 21.1212 15.6572 22.7556 14.4894C24.5748 13.1352 26.292 11.8545 27.3178 10.6078C29.4799 7.98424 31.3162 6.83078 33.4613 6.75162C33.7985 6.75162 34.2179 6.71487 34.7053 6.68377C37.2102 6.53393 41.4013 6.27949 44.8102 7.0626C45.1587 7.08804 49.5991 7.42447 50.2707 7.45839H50.3302L50.3841 7.48384C50.6674 7.63085 51.1662 8.14255 50.88 9.0133C50.5682 9.95756 49.3838 10.4014 49.2052 10.4636L48.7745 10.653C48.0916 10.9103 46.6209 11.3231 44.3001 11.2467C41.1434 11.1421 36.1051 13.0193 36.0541 13.0363C36.0031 13.0532 32.7188 14.4838 31.8036 16.0358C31.4182 16.6946 30.6503 17.7802 29.837 18.928C28.6128 20.6582 27.2272 22.623 26.9665 23.3778C26.7936 23.8811 26.6264 24.5935 26.4337 25.4218C25.867 27.8984 24.9857 31.6415 22.7329 34.5025C22.3539 34.9776 22.0989 35.5391 21.9905 36.1366C21.7496 37.4908 21.2367 40.0154 20.5 41.7088C19.9332 42.9782 20.8825 47.4365 22.5431 51.4454C25.1472 57.747 24.5692 62.9008 20.9619 65.5809C19.7236 66.511 18.0545 66.9747 15.8896 66.9747ZM14.7051 66.3669C17.3404 66.5506 19.2758 66.152 20.619 65.154C22.6026 63.6726 25.4363 59.9521 22.016 51.68C20.466 47.9369 19.2815 43.1054 19.9786 41.5024C20.6757 39.8995 21.1971 37.389 21.4323 36.0574C21.5553 35.3685 21.8474 34.7207 22.2824 34.1717C24.4558 31.4097 25.3116 27.7401 25.8783 25.3116C26.0738 24.4634 26.2439 23.7397 26.4281 23.211C26.7114 22.3799 28.0659 20.4687 29.3723 18.6198C30.177 17.489 30.9393 16.4034 31.3133 15.7673C32.3221 14.054 35.6971 12.5924 35.8472 12.5302C36.0683 12.4454 41.0414 10.5852 44.3228 10.6983C46.5444 10.7718 47.9358 10.3845 48.5733 10.1328L49.0182 9.93777C49.0182 9.93777 50.1149 9.56742 50.3529 8.84085C50.5201 8.32349 50.2849 8.08884 50.1829 8.01816C49.2874 7.96727 44.9462 7.63933 44.7564 7.62519L44.6912 7.6054C41.3588 6.83643 37.2074 7.08522 34.7279 7.23505C34.2377 7.26332 33.8098 7.29159 33.4698 7.3029C31.4862 7.37358 29.8172 8.43375 27.7429 10.9527C26.6746 12.2532 24.929 13.5536 23.0815 14.9304C21.4697 16.0885 19.9292 17.3423 18.4682 18.6848C17.9015 19.2135 15.8499 21.8766 15.0111 23.0669C14.7278 23.4824 14.3084 23.9913 13.787 24.6303C11.3457 27.5589 9.17828 30.7045 7.31199 34.0276C5.31424 37.5869 2.5684 43.0602 1.41225 46.7495V46.7778C1.15439 47.8295 0.927691 48.8246 0.735001 49.735V49.7519C-0.0640996 55.2507 2.04416 59.709 6.98612 63.0167C9.35188 64.5562 11.9617 65.685 14.7051 66.3555V66.3669Z" fill="#231F20"/>
<path d="M55.6407 7.60578C55.3762 8.13678 54.9132 8.54288 54.3514 8.73662C54.1772 8.50059 53.9514 8.30723 53.6912 8.1712C53.6912 8.1712 46.3576 4.49596 44.8076 3.68175C43.2575 2.86755 40.6024 2.83362 40.6024 2.83362H32.651C30.829 2.83362 29.4745 3.17287 26.6379 6.34206C23.8694 9.43209 15.051 17.594 10.9421 21.6593C11.3927 21.0939 17.7827 13.0762 19.7917 10.3255C20.9472 8.7156 22.2641 7.22745 23.7221 5.88407C23.7221 5.88407 28.0576 2.10988 29.3384 0.95642C30.6193 -0.19704 33.3566 0.450368 33.3566 0.450368C33.3566 0.450368 36.1506 1.01579 40.9226 1.55577C45.6945 2.09574 48.0068 2.8421 48.0068 2.8421L54.4223 6.07631C54.4223 6.07631 56.0516 6.75765 55.6407 7.60578Z" fill="#91D3C9"/>
<path d="M11.1403 21.8685L10.7209 21.4896C11.2112 20.8874 17.5615 12.9037 19.5621 10.1812C20.7262 8.55089 22.0556 7.04457 23.5292 5.68609C23.5717 5.64934 27.8789 1.90059 29.1428 0.761266C30.5114 -0.479835 33.3026 0.161919 33.4216 0.195844C33.4415 0.195844 36.2553 0.761266 40.9536 1.29559C45.7028 1.8186 47.9981 2.56213 48.0945 2.59323L48.1341 2.61019L54.5468 5.82462C54.6431 5.8642 55.6604 6.29957 55.9268 6.99221C55.9739 7.11134 55.9958 7.23895 55.9909 7.36695C55.986 7.49494 55.9545 7.62053 55.8985 7.73574C55.6024 8.33803 55.08 8.79932 54.4448 9.01925L54.2266 9.08993L54.1076 8.89203C53.9602 8.70834 53.7745 8.55882 53.5635 8.45383C53.4926 8.4199 46.2129 4.77859 44.677 3.96438C43.2064 3.19541 40.6249 3.13886 40.5965 3.13886H32.6622C31.0045 3.13886 29.7067 3.37634 26.8588 6.55118C25.0849 8.53016 20.9449 12.4881 16.9409 16.2991C14.7164 18.4024 12.6224 20.3984 11.1403 21.8685ZM31.6562 0.537924C30.8996 0.537924 30.0524 0.667971 29.5196 1.15141C28.253 2.28225 23.9429 6.04513 23.8976 6.08471C22.4586 7.41815 21.158 8.89287 20.0154 10.4865C18.8055 12.1404 16.0143 15.7054 13.8777 18.4024L16.5385 15.858C20.347 12.2252 24.6627 8.10609 26.4224 6.14125C29.1853 3.0597 30.5738 2.53952 32.6565 2.53952H40.6107C40.7269 2.53952 43.3565 2.59889 44.9491 3.43006C46.4708 4.25557 53.759 7.8884 53.8214 7.93647C54.053 8.05765 54.2642 8.21407 54.4476 8.40011C54.8566 8.21582 55.1884 7.89486 55.3856 7.49261C55.4074 7.44566 55.4187 7.39453 55.4187 7.34277C55.4187 7.29102 55.4074 7.23989 55.3856 7.19294C55.2325 6.79714 54.5354 6.43245 54.3003 6.3448L47.8933 3.10494C47.6609 3.03143 45.343 2.33031 40.8856 1.83839C36.1561 1.31255 33.3225 0.732995 33.2941 0.72734C32.7561 0.608638 32.2072 0.545168 31.6562 0.537924Z" fill="#231F20"/>
<path d="M54.8417 36.7475C53.9123 36.1821 51.5603 35.5884 49.1063 37.7285C46.8394 39.7075 45.1392 41.5225 44.4647 42.6618C44.3473 42.8578 44.1934 43.0295 44.0114 43.1679C43.558 43.5071 42.705 44.0838 41.9371 44.228C40.1233 44.52 38.3262 44.9069 36.5531 45.3871C35.6718 45.6387 33.6004 44.9122 32.7446 44.5814C31.2909 44.016 29.5567 42.037 29.5567 42.037C28.4232 40.2672 27.4484 35.6308 27.4853 34.5565C27.5363 33.0892 27.6893 31.1809 28.205 30.3554C28.7208 29.5299 29.9648 24.2206 29.6417 18.7332C28.3751 20.5255 26.9724 22.5073 26.6947 23.3102C25.9834 25.3656 25.4592 30.6014 22.5065 34.3529C22.0989 34.8655 21.8244 35.4705 21.7074 36.1142C21.4637 37.4967 20.9565 39.9704 20.2367 41.6214C19.6133 43.0548 20.6618 47.6743 22.277 51.5785C24.3909 56.6927 24.884 62.3357 20.7864 65.3861C18.8879 66.7997 16.2185 66.7629 14.6628 66.6555C14.6628 66.6555 19.2137 67.5573 25.2268 66.2229C27.8423 65.6575 30.1234 63.3421 31.8293 61.9823C32.3849 61.5297 32.9085 61.0395 33.3964 60.515C35.4536 58.3325 40.5061 54.5781 40.5061 54.5781C40.5061 54.5781 47.3324 50.7049 49.0752 48.4687C50.8179 46.2324 54.8927 39.6368 55.1251 39.3286C55.3574 39.0205 55.7712 37.3186 54.8417 36.7475Z" fill="#B5DAA1"/>
<path d="M18.5985 67.2125C17.2623 67.2284 15.9273 67.1281 14.6086 66.9128L14.6823 66.3474C17.329 66.5339 19.2701 66.1353 20.6161 65.1345C22.5996 63.6531 25.4333 59.9326 22.0131 51.6605C20.463 47.9174 19.2786 43.0859 19.9756 41.4829C20.6727 39.88 21.1941 37.3667 21.4293 36.0379C21.5524 35.349 21.8445 34.7012 22.2794 34.1522C24.4529 31.3902 25.3087 27.7206 25.8754 25.2921C26.0709 24.444 26.2409 23.7202 26.4251 23.1915C26.7085 22.3604 28.063 20.4492 29.3693 18.6003L29.5167 18.3911L29.9106 18.4759L29.9276 18.6908C30.2449 24.0623 29.0548 29.5158 28.4484 30.4798C28.0743 31.0792 27.8448 32.4447 27.7711 34.5396C27.7343 35.5715 28.7006 40.1146 29.7859 41.842C29.9502 42.0286 31.5456 43.7927 32.8491 44.3072C34.1526 44.8218 35.8131 45.2939 36.4762 45.1045C38.092 44.6592 39.7303 44.2996 41.3842 44.0273L41.8801 43.9397C42.5885 43.8068 43.4103 43.2527 43.8353 42.9332C43.9887 42.8175 44.1186 42.6735 44.2179 42.5092C44.9008 41.3416 46.6123 39.5153 48.9161 37.508C51.4239 35.3227 53.9091 35.8457 54.9859 36.4987C55.1651 36.616 55.3174 36.7699 55.4327 36.9502C55.548 37.1305 55.6236 37.3332 55.6546 37.5448C55.772 38.2081 55.6643 38.8916 55.3486 39.487C55.2976 39.5548 54.9802 40.0524 54.5778 40.6885C53.2942 42.7071 50.6107 46.9082 49.3015 48.6044C47.5701 50.8265 41.1121 54.5216 40.6644 54.776C40.381 54.9965 35.5638 58.5869 33.6057 60.6705C33.1091 61.2052 32.5761 61.7049 32.0103 62.1661C31.7043 62.412 31.3812 62.6891 31.0384 62.9774C29.4628 64.3175 27.5048 65.9827 25.2917 66.4746C23.0941 66.9622 20.8498 67.2096 18.5985 67.2125ZM29.4033 19.5474C28.3039 21.108 27.1959 22.7166 26.9664 23.3838C26.7935 23.887 26.6263 24.5994 26.4336 25.4278C25.8669 27.9043 24.9856 31.6474 22.7328 34.5085C22.3539 34.9836 22.0988 35.545 21.9904 36.1425C21.7495 37.4967 21.2395 40.0213 20.4999 41.7148C19.9331 42.9841 20.8824 47.4425 22.543 51.4513C25.1471 57.7529 24.5691 62.9068 20.9618 65.5869C20.2821 66.0821 19.512 66.4403 18.6948 66.6414C20.8774 66.6347 23.053 66.394 25.184 65.9233C27.2582 65.4625 29.1511 63.8482 30.687 62.5477C31.0327 62.265 31.3614 61.9823 31.6703 61.725C32.2159 61.2804 32.73 60.7987 33.209 60.2832C35.2606 58.1063 40.1487 54.465 40.3555 54.3124L40.3839 54.2926C40.4519 54.253 47.1847 50.4222 48.8708 48.2567C50.1743 46.5859 52.8379 42.4017 54.1159 40.3888C54.6232 39.5916 54.8499 39.2354 54.9122 39.1534C55.1269 38.685 55.1979 38.1636 55.1162 37.655C55.0997 37.5209 55.0548 37.3917 54.9845 37.2762C54.9141 37.1607 54.8199 37.0614 54.7082 36.985C53.7674 36.4196 51.5684 35.9672 49.3072 37.9377C47.0459 39.9082 45.3683 41.695 44.7223 42.8004C44.5858 43.0282 44.4069 43.2278 44.1952 43.3884C43.6285 43.8153 42.7783 44.3553 42.0019 44.4995L41.5004 44.5899C39.8666 44.8588 38.2482 45.2136 36.6519 45.6529C35.7083 45.9356 33.7474 45.26 32.6621 44.8387C31.1602 44.2478 29.4345 42.2943 29.3637 42.2038L29.3382 42.1699C28.1763 40.3436 27.1846 35.6393 27.2242 34.5367C27.3036 32.3118 27.5529 30.8898 27.9865 30.1971C28.42 29.5045 29.5677 24.704 29.4033 19.5474Z" fill="#231F20"/>
</svg>
