<svg width="108" height="94" viewBox="0 0 108 94" fill="none" xmlns="http://www.w3.org/2000/svg">
<path fill-rule="evenodd" clip-rule="evenodd" d="M40.1834 0C18.0046 0 0 13.4645 0 30.0732C0 45.2249 15.0095 57.734 34.5048 59.8007L26.231 76.301L55.0234 58.005C69.8567 53.5733 81.2544 42.7516 81.2544 30.0732C81.2544 13.4713 62.3689 0 40.1834 0Z" fill="#5BB275"/>
<path fill-rule="evenodd" clip-rule="evenodd" d="M108 60.2413C108 52.6247 100.804 44.7371 92.4891 40.8069C90.158 54.0206 79.4515 66.1841 62.5582 70.941L54.5148 75.2914C57.5912 77.5953 61.3588 79.4317 65.5872 80.6311L90.2394 93.9872L81.4099 81.9525C96.4329 80.4278 108 71.307 108 60.2413Z" fill="#5BB275"/>
</svg>
