<svg width="100" height="100" viewBox="0 0 100 100" fill="none" xmlns="http://www.w3.org/2000/svg">
<path d="M29.999 80C24.4992 80 20.0493 84.5 20.0493 90C20.0493 95.5 24.4992 100 29.999 100C35.4988 100 39.9986 95.5 39.9986 90C39.9986 84.5 35.4988 80 29.999 80ZM0 0V10H9.99966L27.999 47.95L21.2493 60.2C20.4493 61.6 19.9993 63.25 19.9993 65C19.9993 70.5 24.4992 75 29.999 75H89.9969V65H32.0989C31.3989 65 30.8489 64.45 30.8489 63.75L30.9989 63.15L35.4988 55H72.7475C76.4974 55 79.7973 52.95 81.4972 49.85L99.3966 17.4C99.8091 16.6369 100.017 15.7799 99.9989 14.9126C99.9812 14.0454 99.7389 13.1975 99.2956 12.4519C98.8523 11.7063 98.2232 11.0885 97.4697 10.6587C96.7162 10.229 95.8641 10.002 94.9967 10H21.0493L16.3494 0H0ZM79.9973 80C74.4974 80 70.0476 84.5 70.0476 90C70.0476 95.5 74.4974 100 79.9973 100C85.4971 100 89.9969 95.5 89.9969 90C89.9969 84.5 85.4971 80 79.9973 80Z" fill="#5BB275"/>
</svg>
