<svg width="148" height="68" viewBox="0 0 148 68" fill="none" xmlns="http://www.w3.org/2000/svg">
<path d="M75.5417 27.1721C78.5681 27.1721 80.6225 25.6229 81.5944 22.3349L87.684 24.0312C85.9838 29.3716 82.2519 32.586 75.5417 32.586C67.0066 32.586 62.042 26.471 62.042 18.0717C62.042 9.67232 66.8139 3.55728 75.3603 3.55728C81.6851 3.55728 86.3012 6.57663 87.6982 12.1489L81.6086 13.8451C80.7953 10.3621 78.3895 8.96837 75.3745 8.96837C71.107 8.96837 68.4688 12.3609 68.4688 18.0632C68.4688 23.7655 71.2741 27.1721 75.5417 27.1721Z" fill="#231F20"/>
<path d="M99.4383 11.3034C104.822 11.3034 109.447 14.515 109.447 21.9474C109.447 29.3799 104.831 32.5915 99.4383 32.5915C94.0458 32.5915 89.4297 29.3743 89.4297 21.9474C89.4297 14.5206 94.0458 11.3034 99.4383 11.3034ZM99.4383 27.7515C102.116 27.7515 103.629 25.699 103.629 21.9474C103.629 18.1959 102.116 16.1434 99.4383 16.1434C96.7604 16.1434 95.2473 18.1959 95.2473 21.9503C95.2473 25.7047 96.7633 27.7543 99.4383 27.7543V27.7515Z" fill="#231F20"/>
<path d="M112.36 24.5683V19.3156H122.845V24.5683H112.36Z" fill="#231F20"/>
<path d="M75.5417 61.363C78.5681 61.363 80.6225 59.8138 81.5944 56.5259L87.684 58.2221C85.9838 63.5625 82.2519 66.7769 75.5417 66.7769C67.0066 66.7769 62.042 60.6619 62.042 52.2626C62.042 43.8632 66.8139 37.7482 75.3603 37.7482C81.6851 37.7482 86.3012 40.7676 87.6982 46.3398L81.6086 48.036C80.7953 44.553 78.3895 43.1593 75.3745 43.1593C71.107 43.1593 68.4688 46.5518 68.4688 52.2541C68.4688 57.9564 71.2741 61.363 75.5417 61.363Z" fill="#231F20"/>
<path d="M95.9469 66.7828C92.2999 66.7828 89.2339 64.8038 89.2339 61.0946C89.2339 56.7607 92.2603 55.1351 97.1484 54.5527C99.2425 54.3209 100.484 54.089 101.492 53.6226V53.1589C101.492 51.8415 100.756 50.2187 98.3102 50.2187C96.0602 50.2187 95.1676 51.7284 94.7794 53.1985L89.8516 51.5729C90.8604 46.928 94.8163 45.4975 98.5794 45.4975C103.74 45.4975 107.307 47.8185 107.307 54.0523V62.1039C107.307 64.1564 107.772 65.471 108.472 66.206H102.62C102.039 65.7028 101.807 64.7727 101.728 64.1168C100.059 66.1269 98.3527 66.7828 95.9469 66.7828ZM101.495 57.1056C100.341 57.5559 99.1449 57.8929 97.9248 58.112C96.1396 58.4597 94.9778 59.1185 95.0543 60.7045C95.094 61.595 95.6352 62.446 97.3042 62.446C99.1263 62.446 100.835 61.1681 101.495 59.8139V57.1056Z" fill="#231F20"/>
<path d="M111.776 66.2004V46.0742H117.234V49.5572C118.515 46.8488 119.832 45.4918 122.742 45.4918C124.295 45.4918 125.381 45.7745 126.31 46.4983L125.46 51.6832C124.581 51.1937 123.596 50.9277 122.589 50.9086C119.254 50.9086 117.585 53.3484 117.585 57.2554V66.1947L111.776 66.2004Z" fill="#231F20"/>
<path d="M133.102 57.8012C133.258 60.5887 135.086 61.9429 137.679 61.9429C139.54 61.9429 140.745 60.8968 141.209 59.6218L146.642 60.7527C145.128 64.7389 142.142 66.7914 137.29 66.7914C132.091 66.7914 127.282 63.5798 127.282 56.1473C127.282 48.7148 132.144 45.4891 137.304 45.4891C142.385 45.4891 147.004 48.5989 147.004 55.319C147.004 56.5177 146.965 57.7192 146.965 57.7955L133.102 57.8012ZM133.179 53.8432H141.093C140.937 51.7144 139.393 50.3206 137.126 50.3206C136.144 50.304 135.191 50.6592 134.461 51.315C133.731 51.9707 133.277 52.8781 133.19 53.8545L133.179 53.8432Z" fill="#231F20"/>
<path d="M51.6673 35.4583H51.6616V34.8929L51.6673 35.4583Z" fill="#231F20"/>
<path d="M54.1954 9.30183C53.4841 9.80223 52.1693 10.6645 49.0947 10.1952C49.0947 10.1952 50.3217 9.79375 50.6108 8.91734C50.8998 8.04094 50.2566 7.72713 50.2566 7.72713C49.5481 7.6932 44.7677 7.33133 44.7677 7.33133C40.724 6.41252 35.5299 6.95533 33.4726 7.04014C31.4154 7.12496 29.6726 8.1936 27.536 10.7861C25.6006 13.1382 21.3898 15.5045 18.2727 18.4815C17.706 19.0299 15.6317 21.6959 14.7788 22.903C13.6311 24.5315 10.5084 27.7515 7.06548 33.8892C5.11023 37.375 2.31338 42.9359 1.14307 46.679C3.33917 37.7736 7.66055 24.9442 10.6331 21.9729C10.7238 21.8825 10.8173 21.7892 10.9165 21.6902C10.924 21.6791 10.9326 21.6687 10.942 21.6591C15.0508 17.5937 23.8692 9.43188 26.6378 6.34185C29.4715 3.17266 30.8316 2.8334 32.6508 2.8334H40.605C40.605 2.8334 43.2602 2.88147 44.8102 3.68154C46.3602 4.48161 53.6938 8.17099 53.6938 8.17099C53.9541 8.30702 54.1799 8.50038 54.3541 8.73641C54.3841 8.78308 54.4039 8.83557 54.4121 8.89042C54.4204 8.94527 54.4169 9.00124 54.4019 9.05464C54.3869 9.10805 54.3608 9.15769 54.3252 9.20029C54.2896 9.2429 54.2453 9.2775 54.1954 9.30183Z" fill="#C8EBFB"/>
<path d="M1.41272 46.7611L0.868652 46.6198C2.94575 38.195 7.28696 24.9189 10.4352 21.7808L10.7044 21.5179L10.7412 21.4754C12.2289 20.0025 14.3258 18.0038 16.5418 15.8863C20.3503 12.2534 24.666 8.13432 26.4257 6.16948C29.1885 3.08794 30.577 2.56775 32.6598 2.56775H40.614C40.7301 2.56775 43.3598 2.62712 44.9523 3.45829C46.4712 4.25553 53.7594 7.88837 53.8218 7.93643C54.1344 8.09104 54.4047 8.31902 54.6096 8.6008C54.6582 8.6778 54.6907 8.76384 54.7051 8.85373C54.7194 8.94362 54.7154 9.03548 54.6931 9.12375C54.6709 9.21202 54.6309 9.29488 54.5756 9.36729C54.5203 9.43971 54.4509 9.50018 54.3715 9.54505C53.7056 10.0115 52.3228 10.9841 49.064 10.4865L47.8994 10.3084L49.0329 9.93802C49.0329 9.93802 50.1295 9.56767 50.3675 8.8411C50.5347 8.32374 50.2995 8.09192 50.1975 8.01841C49.3021 7.96753 44.9608 7.63958 44.771 7.62545L44.6916 7.60566C41.3592 6.83668 37.2079 7.08547 34.7284 7.2353C34.2382 7.26358 33.8103 7.29185 33.4702 7.30316C31.4867 7.37383 29.8176 8.434 27.7434 10.953C26.6751 12.2534 24.9295 13.5539 23.0819 14.9307C21.4702 16.0888 19.9296 17.3425 18.4687 18.6851C17.902 19.2138 15.8504 21.8769 15.0116 23.0671C14.7282 23.4827 14.3088 23.9916 13.7874 24.6305C11.3461 27.5591 9.17869 30.7047 7.31246 34.0278C5.30337 37.5871 2.5717 43.0604 1.41272 46.7611ZM11.1068 21.8995L10.8234 22.1822C8.52244 24.4778 5.15602 33.3606 2.71338 41.873C3.98854 39.0177 5.54707 36.0124 6.80806 33.7621C8.68609 30.4114 10.8677 27.2393 13.3255 24.2856C13.8384 23.6523 14.2437 23.1548 14.527 22.7505C15.4168 21.5065 17.4882 18.8349 18.0776 18.278C19.5593 16.9225 21.1216 15.6574 22.7561 14.4897C24.5753 13.1355 26.2925 11.8548 27.3183 10.608C29.4804 7.98449 31.3166 6.83103 33.4617 6.75187C33.7989 6.75187 34.2183 6.71512 34.7057 6.68402C37.2107 6.53418 41.4017 6.27974 44.8107 7.06285C45.1592 7.0883 49.5996 7.42472 50.2712 7.45865H50.3307L50.3845 7.48409C50.6679 7.6311 51.1666 8.14281 50.8804 9.01356C50.7213 9.43193 50.4311 9.78789 50.053 10.0285C52.4333 10.2038 53.4931 9.46307 54.0201 9.07858C54.1533 8.98528 54.1307 8.94288 54.0938 8.88068C53.9498 8.70224 53.7691 8.55667 53.5639 8.45379C53.4931 8.41986 46.2133 4.77855 44.6803 3.96434C43.2068 3.19537 40.6281 3.13882 40.6026 3.13882H32.6683C31.0106 3.13882 29.7128 3.3763 26.8649 6.55114C25.091 8.53012 20.951 12.4881 16.947 16.299C14.7311 18.4137 12.637 20.4125 11.1521 21.8797L11.1294 21.925L11.1068 21.8995Z" fill="#231F20"/>
<path d="M50.6111 8.93172C50.3277 9.80813 49.0951 10.2096 49.0951 10.2096L49.0611 10.2265L48.9477 10.2774L48.7919 10.3481L48.6955 10.3877H48.6643C48.0041 10.6365 46.5759 11.0323 44.309 10.9531C41.0502 10.8428 35.9552 12.7625 35.9552 12.7625C35.9552 12.7625 32.535 14.2297 31.5602 15.8723C30.5854 17.5148 27.1481 21.959 26.7004 23.268C25.9892 25.3233 25.4649 30.5591 22.5122 34.3107C22.1046 34.8232 21.8301 35.4282 21.7131 36.072C21.4694 37.4544 20.9622 39.9281 20.2424 41.5792C19.619 43.0125 20.6675 47.632 22.2827 51.5362C24.3966 56.6505 24.8897 62.2934 20.7922 65.3438C18.8936 66.7574 16.2243 66.7206 14.6686 66.6132C14.6686 66.6132 -1.48345 63.2207 0.449129 49.7015C0.644654 48.7685 0.877016 47.7592 1.14055 46.6849V46.6623C2.31086 42.9136 5.10771 37.3583 7.06296 33.8725C10.5059 27.7376 13.6286 24.5176 14.7763 22.8863C15.6264 21.6792 17.695 19.0132 18.2702 18.4647C21.3873 15.4878 25.5981 13.1215 27.5335 10.7693C29.6701 8.17689 31.4128 7.0941 33.4701 7.01777C35.5274 6.94144 40.73 6.39581 44.7652 7.32593C44.7652 7.32593 49.5485 7.6878 50.254 7.72172C50.2569 7.74151 50.8945 8.05815 50.6111 8.93172Z" fill="#7AC38F"/>
<path d="M15.8896 66.9748C15.491 66.9748 15.0763 66.9597 14.6456 66.9295H14.6059C11.7856 66.2428 9.10271 65.0832 6.67158 63.5003C1.61911 60.1021 -0.647839 55.344 0.159762 49.7294V49.6135L0.185265 49.5881C0.377956 48.6806 0.604651 47.6911 0.859683 46.645L0.879519 46.5885C2.04133 42.8624 4.80701 37.3495 6.83026 33.7647C8.70836 30.4141 10.89 27.242 13.3477 24.2883C13.8606 23.655 14.2659 23.1574 14.5492 22.7531C15.4163 21.5064 17.4878 18.8348 18.0772 18.2778C19.5589 16.9224 21.1212 15.6573 22.7556 14.4895C24.5748 13.1353 26.292 11.8546 27.3178 10.6079C29.4799 7.98433 31.3162 6.83087 33.4613 6.75171C33.7985 6.75171 34.2179 6.71496 34.7053 6.68386C37.2102 6.53402 41.4013 6.27958 44.8102 7.06269C45.1587 7.08814 49.5991 7.42456 50.2707 7.45849H50.3302L50.3841 7.48393C50.6674 7.63094 51.1662 8.14265 50.88 9.0134C50.5682 9.95765 49.3838 10.4015 49.2052 10.4637L48.7745 10.6531C48.0916 10.9104 46.6209 11.3231 44.3001 11.2468C41.1434 11.1422 36.1051 13.0194 36.0541 13.0364C36.0031 13.0533 32.7188 14.4838 31.8036 16.0359C31.4182 16.6946 30.6503 17.7803 29.837 18.9281C28.6128 20.6583 27.2272 22.6231 26.9665 23.3779C26.7936 23.8812 26.6264 24.5936 26.4337 25.4219C25.867 27.8985 24.9857 31.6416 22.7329 34.5026C22.3539 34.9777 22.0989 35.5392 21.9905 36.1367C21.7496 37.4909 21.2367 40.0155 20.5 41.7089C19.9332 42.9783 20.8825 47.4366 22.5431 51.4455C25.1472 57.7471 24.5692 62.9009 20.9619 65.581C19.7236 66.5111 18.0545 66.9748 15.8896 66.9748ZM14.7051 66.3669C17.3404 66.5507 19.2758 66.1521 20.619 65.1541C22.6026 63.6727 25.4363 59.9522 22.016 51.6801C20.466 47.937 19.2815 43.1055 19.9786 41.5025C20.6757 39.8996 21.1971 37.3891 21.4323 36.0575C21.5553 35.3686 21.8474 34.7208 22.2824 34.1718C24.4558 31.4097 25.3116 27.7402 25.8783 25.3117C26.0738 24.4635 26.2439 23.7398 26.4281 23.2111C26.7114 22.38 28.0659 20.4688 29.3723 18.6199C30.177 17.4891 30.9393 16.4035 31.3133 15.7674C32.3221 14.0541 35.6971 12.5925 35.8472 12.5303C36.0683 12.4455 41.0414 10.5853 44.3228 10.6984C46.5444 10.7719 47.9358 10.3845 48.5733 10.1329L49.0182 9.93786C49.0182 9.93786 50.1149 9.56751 50.3529 8.84094C50.5201 8.32358 50.2849 8.08893 50.1829 8.01825C49.2874 7.96736 44.9462 7.63942 44.7564 7.62529L44.6912 7.6055C41.3588 6.83652 37.2074 7.08531 34.7279 7.23514C34.2377 7.26341 33.8098 7.29169 33.4698 7.30299C31.4862 7.37367 29.8172 8.43384 27.7429 10.9528C26.6746 12.2533 24.929 13.5537 23.0815 14.9305C21.4697 16.0886 19.9292 17.3423 18.4682 18.6849C17.9015 19.2136 15.8499 21.8767 15.0111 23.067C14.7278 23.4825 14.3084 23.9914 13.787 24.6303C11.3457 27.559 9.17828 30.7046 7.31199 34.0277C5.31424 37.587 2.5684 43.0603 1.41225 46.7496V46.7779C1.15439 47.8296 0.927691 48.8247 0.735001 49.7351V49.752C-0.0640996 55.2508 2.04416 59.7091 6.98612 63.0168C9.35188 64.5562 11.9617 65.6851 14.7051 66.3556V66.3669Z" fill="#231F20"/>
<path d="M55.6407 7.60578C55.3762 8.13678 54.9132 8.54288 54.3514 8.73662C54.1772 8.50059 53.9514 8.30723 53.6912 8.1712C53.6912 8.1712 46.3576 4.49596 44.8076 3.68175C43.2575 2.86755 40.6024 2.83362 40.6024 2.83362H32.651C30.829 2.83362 29.4745 3.17287 26.6379 6.34206C23.8694 9.43209 15.051 17.594 10.9421 21.6593C11.3927 21.0939 17.7827 13.0762 19.7917 10.3255C20.9472 8.7156 22.2641 7.22745 23.7221 5.88407C23.7221 5.88407 28.0576 2.10988 29.3384 0.95642C30.6193 -0.19704 33.3566 0.450368 33.3566 0.450368C33.3566 0.450368 36.1506 1.01579 40.9226 1.55577C45.6945 2.09574 48.0068 2.8421 48.0068 2.8421L54.4223 6.07631C54.4223 6.07631 56.0516 6.75765 55.6407 7.60578Z" fill="#91D3C9"/>
<path d="M11.1403 21.8685L10.7209 21.4896C11.2112 20.8874 17.5615 12.9037 19.5621 10.1812C20.7262 8.55089 22.0556 7.04457 23.5292 5.68609C23.5717 5.64934 27.8789 1.90059 29.1428 0.761266C30.5114 -0.479835 33.3026 0.161919 33.4216 0.195844C33.4415 0.195844 36.2553 0.761266 40.9536 1.29559C45.7028 1.8186 47.9981 2.56213 48.0945 2.59323L48.1341 2.61019L54.5468 5.82462C54.6431 5.8642 55.6604 6.29957 55.9268 6.99221C55.9739 7.11134 55.9958 7.23895 55.9909 7.36695C55.986 7.49494 55.9545 7.62053 55.8985 7.73574C55.6024 8.33803 55.08 8.79932 54.4448 9.01925L54.2266 9.08993L54.1076 8.89203C53.9602 8.70834 53.7745 8.55882 53.5635 8.45383C53.4926 8.4199 46.2129 4.77859 44.677 3.96438C43.2064 3.19541 40.6249 3.13886 40.5965 3.13886H32.6622C31.0045 3.13886 29.7067 3.37634 26.8588 6.55118C25.0849 8.53016 20.9449 12.4881 16.9409 16.2991C14.7164 18.4024 12.6224 20.3984 11.1403 21.8685ZM31.6562 0.537924C30.8996 0.537924 30.0524 0.667971 29.5196 1.15141C28.253 2.28225 23.9429 6.04513 23.8976 6.08471C22.4586 7.41815 21.158 8.89287 20.0154 10.4865C18.8055 12.1404 16.0143 15.7054 13.8777 18.4024L16.5385 15.858C20.347 12.2252 24.6627 8.10609 26.4224 6.14125C29.1853 3.0597 30.5738 2.53952 32.6565 2.53952H40.6107C40.7269 2.53952 43.3565 2.59889 44.9491 3.43006C46.4708 4.25557 53.759 7.8884 53.8214 7.93647C54.053 8.05765 54.2642 8.21407 54.4476 8.40011C54.8566 8.21582 55.1884 7.89486 55.3856 7.49261C55.4074 7.44566 55.4187 7.39453 55.4187 7.34277C55.4187 7.29102 55.4074 7.23989 55.3856 7.19294C55.2325 6.79714 54.5354 6.43245 54.3003 6.3448L47.8933 3.10494C47.6609 3.03143 45.343 2.33031 40.8856 1.83839C36.1561 1.31255 33.3225 0.732995 33.2941 0.72734C32.7561 0.608638 32.2072 0.545168 31.6562 0.537924Z" fill="#231F20"/>
<path d="M54.8417 36.7476C53.9123 36.1822 51.5603 35.5885 49.1063 37.7286C46.8394 39.7076 45.1392 41.5226 44.4647 42.6619C44.3473 42.8578 44.1934 43.0296 44.0114 43.1679C43.558 43.5072 42.705 44.0839 41.9371 44.2281C40.1233 44.5201 38.3262 44.907 36.5531 45.3872C35.6718 45.6388 33.6004 44.9123 32.7446 44.5815C31.2909 44.0161 29.5567 42.0371 29.5567 42.0371C28.4232 40.2673 27.4484 35.6309 27.4853 34.5566C27.5363 33.0893 27.6893 31.181 28.205 30.3555C28.7208 29.53 29.9648 24.2207 29.6417 18.7332C28.3751 20.5256 26.9724 22.5074 26.6947 23.3103C25.9834 25.3656 25.4592 30.6014 22.5065 34.353C22.0989 34.8656 21.8244 35.4705 21.7074 36.1143C21.4637 37.4968 20.9565 39.9705 20.2367 41.6215C19.6133 43.0549 20.6618 47.6744 22.277 51.5786C24.3909 56.6928 24.884 62.3357 20.7864 65.3862C18.8879 66.7997 16.2185 66.763 14.6628 66.6556C14.6628 66.6556 19.2137 67.5574 25.2268 66.223C27.8423 65.6576 30.1234 63.3422 31.8293 61.9823C32.3849 61.5298 32.9085 61.0396 33.3964 60.5151C35.4536 58.3326 40.5061 54.5782 40.5061 54.5782C40.5061 54.5782 47.3324 50.705 49.0752 48.4688C50.8179 46.2325 54.8927 39.6369 55.1251 39.3287C55.3574 39.0206 55.7712 37.3187 54.8417 36.7476Z" fill="#B5DAA1"/>
<path d="M18.5985 67.2124C17.2623 67.2283 15.9273 67.128 14.6086 66.9127L14.6823 66.3473C17.329 66.5339 19.2701 66.1353 20.6161 65.1345C22.5996 63.6531 25.4333 59.9326 22.0131 51.6605C20.463 47.9174 19.2786 43.0858 19.9756 41.4829C20.6727 39.8799 21.1941 37.3666 21.4293 36.0379C21.5524 35.349 21.8445 34.7011 22.2794 34.1522C24.4529 31.3901 25.3087 27.7205 25.8754 25.292C26.0709 24.4439 26.2409 23.7202 26.4251 23.1915C26.7085 22.3603 28.063 20.4492 29.3693 18.6003L29.5167 18.3911L29.9106 18.4759L29.9276 18.6907C30.2449 24.0622 29.0548 29.5157 28.4484 30.4798C28.0743 31.0791 27.8448 32.4446 27.7711 34.5395C27.7343 35.5714 28.7006 40.1146 29.7859 41.8419C29.9502 42.0285 31.5456 43.7926 32.8491 44.3072C34.1526 44.8217 35.8131 45.2938 36.4762 45.1044C38.092 44.6591 39.7303 44.2996 41.3842 44.0273L41.8801 43.9396C42.5885 43.8068 43.4103 43.2526 43.8353 42.9332C43.9887 42.8174 44.1186 42.6735 44.2179 42.5091C44.9008 41.3415 46.6123 39.5152 48.9161 37.508C51.4239 35.3226 53.9091 35.8456 54.9859 36.4987C55.1651 36.616 55.3174 36.7698 55.4327 36.9501C55.548 37.1304 55.6236 37.3331 55.6546 37.5447C55.772 38.2081 55.6643 38.8915 55.3486 39.4869C55.2976 39.5548 54.9802 40.0524 54.5778 40.6885C53.2942 42.707 50.6107 46.9081 49.3015 48.6044C47.5701 50.8265 41.1121 54.5215 40.6644 54.7759C40.381 54.9965 35.5638 58.5869 33.6057 60.6705C33.1091 61.2051 32.5761 61.7048 32.0103 62.166C31.7043 62.412 31.3812 62.689 31.0384 62.9774C29.4628 64.3174 27.5048 65.9826 25.2917 66.4745C23.0941 66.9622 20.8498 67.2096 18.5985 67.2124ZM29.4033 19.5473C28.3039 21.1079 27.1959 22.7165 26.9664 23.3837C26.7935 23.887 26.6263 24.5994 26.4336 25.4277C25.8669 27.9043 24.9856 31.6474 22.7328 34.5084C22.3539 34.9835 22.0988 35.545 21.9904 36.1425C21.7495 37.4967 21.2395 40.0213 20.4999 41.7147C19.9331 42.9841 20.8824 47.4424 22.543 51.4513C25.1471 57.7529 24.5691 62.9067 20.9618 65.5868C20.2821 66.0821 19.512 66.4403 18.6948 66.6413C20.8774 66.6347 23.053 66.3939 25.184 65.9232C27.2582 65.4624 29.1511 63.8481 30.687 62.5477C31.0327 62.2649 31.3614 61.9822 31.6703 61.725C32.2159 61.2804 32.73 60.7986 33.209 60.2831C35.2606 58.1063 40.1487 54.465 40.3555 54.3123L40.3839 54.2925C40.4519 54.2529 47.1847 50.4222 48.8708 48.2566C50.1743 46.5858 52.8379 42.4017 54.1159 40.3888C54.6232 39.5915 54.8499 39.2353 54.9122 39.1533C55.1269 38.6849 55.1979 38.1636 55.1162 37.655C55.0997 37.5208 55.0548 37.3917 54.9845 37.2761C54.9141 37.1606 54.8199 37.0614 54.7082 36.9849C53.7674 36.4195 51.5684 35.9672 49.3072 37.9377C47.0459 39.9082 45.3683 41.6949 44.7223 42.8003C44.5858 43.0281 44.4069 43.2277 44.1952 43.3883C43.6285 43.8152 42.7783 44.3552 42.0019 44.4994L41.5004 44.5899C39.8666 44.8587 38.2482 45.2135 36.6519 45.6529C35.7083 45.9356 33.7474 45.2599 32.6621 44.8387C31.1602 44.2478 29.4345 42.2943 29.3637 42.2038L29.3382 42.1699C28.1763 40.3435 27.1846 35.6392 27.2242 34.5367C27.3036 32.3117 27.5529 30.8897 27.9865 30.1971C28.42 29.5044 29.5677 24.704 29.4033 19.5473Z" fill="#231F20"/>
</svg>
