<svg width="51" height="61" viewBox="0 0 51 61" fill="none" xmlns="http://www.w3.org/2000/svg">
<path d="M50.6111 2.93172C50.3277 3.80813 49.0951 4.20958 49.0951 4.20958L49.0611 4.22654L48.9477 4.27743L48.7919 4.3481L48.6955 4.38768H48.6643C48.0041 4.63647 46.5759 5.03226 44.309 4.95311C41.0502 4.84285 35.9552 6.76246 35.9552 6.76246C35.9552 6.76246 32.535 8.22972 31.5602 9.87227C30.5854 11.5148 27.1481 15.959 26.7004 17.268C25.9892 19.3233 25.4649 24.5591 22.5122 28.3107C22.1046 28.8232 21.8301 29.4282 21.7131 30.072C21.4694 31.4544 20.9622 33.9281 20.2424 35.5792C19.619 37.0125 20.6675 41.632 22.2827 45.5362C24.3966 50.6505 24.8897 56.2934 20.7922 59.3438C18.8936 60.7574 16.2243 60.7206 14.6686 60.6132C14.6686 60.6132 -1.48345 57.2207 0.449129 43.7015C0.644654 42.7685 0.877016 41.7592 1.14055 40.6849V40.6623C2.31086 36.9136 5.10771 31.3583 7.06296 27.8725C10.5059 21.7376 13.6286 18.5176 14.7763 16.8863C15.6264 15.6792 17.695 13.0132 18.2702 12.4647C21.3873 9.48779 25.5981 7.1215 27.5335 4.76935C29.6701 2.17689 31.4128 1.0941 33.4701 1.01777C35.5274 0.94144 40.73 0.395808 44.7652 1.32593C44.7652 1.32593 49.5485 1.6878 50.254 1.72172C50.2569 1.74151 50.8945 2.05815 50.6111 2.93172Z" fill="#7AC38F"/>
</svg>
